<?xml version="1.0" standalone="no"?>
<!DOCTYPE svg PUBLIC "-//W3C//DTD SVG 20010904//EN"
 "http://www.w3.org/TR/2001/REC-SVG-20010904/DTD/svg10.dtd">
<svg version="1.0" xmlns="http://www.w3.org/2000/svg"
 width="470.000000pt" height="470.000000pt" viewBox="0 0 470.000000 470.000000"
 preserveAspectRatio="xMidYMid meet">
<metadata>
Created by potrace 1.11, written by Peter Selinger 2001-2013
</metadata>
<g transform="translate(0.000000,470.000000) scale(0.100000,-0.100000)"
fill="#000000" stroke="none">
<path d="M4070 4646 c-524 -230 -1023 -642 -1374 -1136 -143 -201 -271 -418
-350 -592 l-35 -78 244 0 c135 0 245 -2 245 -5 0 -3 -30 -47 -67 -98 -104
-143 -282 -417 -378 -582 -501 -856 -691 -1566 -548 -2047 l26 -88 548 0 548
0 17 58 c59 205 205 509 345 718 228 341 541 613 863 751 44 20 85 39 90 44 5
5 19 57 31 117 37 182 105 370 187 514 l38 68 -35 70 c-76 151 -181 296 -315
435 l-97 100 13 225 c7 124 15 275 18 335 4 61 20 357 37 658 16 302 29 553
27 557 -2 5 -37 -6 -78 -24z m-570 -2122 c0 -3 -19 -42 -42 -87 -83 -159 -240
-280 -425 -328 -88 -22 -266 -36 -301 -22 l-22 8 32 39 c82 100 349 253 613
351 118 44 145 51 145 39z m-912 -1594 c-70 -72 -142 -180 -188 -283 -33 -72
-50 -94 -50 -64 0 20 -115 193 -194 292 -40 50 -76 96 -80 103 -6 9 53 12 281
12 l289 0 -58 -60z"/>
<path d="M590 4633 c0 -10 9 -216 20 -458 10 -242 27 -619 36 -837 l17 -397
-100 -108 c-163 -178 -290 -347 -352 -471 l-22 -43 42 -97 c53 -124 131 -359
159 -484 l22 -96 103 -50 c179 -87 356 -216 540 -393 l105 -102 0 397 0 396
-151 0 -150 0 6 73 c11 130 26 220 57 347 101 418 375 951 742 1444 52 71 95
131 93 132 -4 3 -1142 750 -1154 758 -9 5 -13 1 -13 -11z"/>
<path d="M1249 2454 c73 -142 160 -228 296 -294 44 -22 109 -46 145 -55 76
-18 255 -31 294 -21 l27 7 -33 41 c-48 61 -171 148 -305 216 -125 63 -376 167
-432 178 l-34 7 42 -79z"/>
</g>
</svg>
