<svg width="194" height="41" viewBox="0 0 194 41" fill="none" xmlns="http://www.w3.org/2000/svg">
<path d="M6.42453 3.2921C5.6745 3.56912 4.8697 3.95343 4.18902 4.45328L8.44437 5.57301C7.28321 6.1244 7.30426 8.36029 7.31669 9.68085C7.31866 9.88934 7.32041 10.075 7.31725 10.2276L7.46723 10.2303C7.46723 10.2304 7.46723 10.2305 7.46722 10.2306C7.36484 16.062 7.2631 21.8933 7.16198 27.7248C7.16098 27.9846 7.15727 28.2597 7.15343 28.5449C7.14464 29.1983 7.13513 29.9045 7.15583 30.6003C7.18559 31.601 7.27772 32.5595 7.51731 33.2824C7.63932 33.6504 8.03232 33.995 8.88095 34.0794L8.90238 34.3742C6.43288 34.9896 3.97022 35.6286 1.51304 36.2914L1.38199 36.0281C1.80753 35.6978 2.0932 35.4249 2.24978 35.2064L2.24981 35.2063C2.40548 34.9893 2.57486 34.6166 2.75522 34.0779C2.84193 33.8176 2.93888 33.4203 2.98627 32.9342C3.05376 32.2413 3.05421 31.6905 3.05448 31.3594L3.05448 31.3572V31.3572L3.06262 19.7251L3.07076 8.09297L3.07032 8.09296L3.07121 8.08146C3.10453 7.65225 3.11513 7.16509 3.041 6.72696C2.96643 6.28618 2.81029 5.91949 2.53161 5.701L2.6158 5.59363L2.53161 5.701C2.22283 5.45889 1.6781 5.48737 1.08375 5.88735L0.884674 5.66698C2.17793 4.11203 4.3695 2.97676 6.0046 2.24678C7.84448 1.42538 10.1842 0.879242 12.3666 0.851894C14.2057 0.828812 16.1194 1.44672 17.5576 2.61591C19.0337 3.81605 20.0857 5.4839 21.0565 7.05976C21.2032 7.25617 21.2778 7.35583 21.4259 7.55308L21.2393 7.77754C21.0209 7.66935 20.9116 7.61494 20.6933 7.50602C19.7709 7.04925 18.8604 7.53096 18.1075 8.0578C17.2043 8.68984 16.2926 9.48852 15.3893 10.2798C15.1559 10.4843 14.923 10.6883 14.691 10.8888C14.4229 11.1311 14.2486 11.2892 14.0366 11.4827C14.4751 11.4649 14.9135 11.4477 15.3517 11.4305C16.6333 11.3802 17.9138 11.33 19.1941 11.2641L19.6259 11.2419L19.3007 11.5267C18.4883 12.2384 18.034 13.2668 17.9029 14.3419C17.8215 15.3306 17.821 16.3311 17.8206 17.328C17.8205 17.4688 17.8205 17.6095 17.8202 17.7501C17.8143 20.5942 17.9404 23.5074 18.2582 26.2905C18.5558 28.8981 18.9469 31.7352 20.1467 34.1299L19.9028 34.2993C17.8216 32.0621 16.8052 28.7813 15.93 25.9561C15.8828 25.8037 15.836 25.6526 15.7894 25.503C15.5025 24.5811 15.2265 23.6534 14.9503 22.7248C14.5675 21.4383 14.1843 20.1501 13.7707 18.8731L13.7685 18.8662L13.767 18.8592C13.4884 17.6 13.0027 16.2674 12.2219 15.2818C11.4457 14.3021 10.3817 13.6681 8.92609 13.7807L8.55876 13.8091L8.80177 13.5322C9.74173 12.4611 10.8858 11.5384 11.9864 10.6508C12.1705 10.5022 12.3534 10.3547 12.534 10.2076C12.8711 9.93296 13.2933 9.63882 13.7147 9.34524C13.9496 9.18155 14.1843 9.01804 14.4039 8.85817C14.7146 8.63194 14.9977 8.41144 15.2208 8.20174C15.4468 7.98928 15.5972 7.80049 15.6603 7.63984L15.6603 7.63982C15.7183 7.49222 15.688 7.27363 15.5493 6.98722C15.4137 6.70716 15.1894 6.39348 14.9159 6.07708C14.3692 5.4446 13.6468 4.82547 13.1135 4.47458C13.0516 4.43388 12.9894 4.39286 12.9269 4.35164C12.3473 3.96915 11.7421 3.56976 11.1122 3.25428C10.4153 2.90521 9.70043 2.66547 8.97487 2.66538C8.14869 2.66529 7.22005 2.99824 6.42453 3.2921Z" fill="white" stroke="white" stroke-width="0.3"/>
<mask id="path-2-outside-1_1064_12" maskUnits="userSpaceOnUse" x="18.9702" y="4.79248" width="18" height="29" fill="black">
<rect fill="white" x="18.9702" y="4.79248" width="18" height="29"/>
<path d="M31.4877 15.0785C31.0811 14.2942 30.1451 14.0954 29.3406 14.0065C28.3026 13.892 27.1524 14.0041 26.2607 14.6301C26.9058 12.7267 27.6337 10.1584 29.4222 9.01014C30.5377 8.29378 31.2587 8.01631 31.5316 8.14425C31.517 10.4557 31.5024 12.7672 31.4877 15.0785ZM34.5748 8.49937C34.5674 7.30995 34.9878 5.84359 36.306 5.51142C36.0322 5.51826 35.8952 5.52167 35.6213 5.5286C34.6624 5.58672 33.7037 5.64619 32.745 5.70701C29.9527 5.99474 27.1501 7.16518 25.6396 9.55806C24.3012 11.6785 23.5148 14.1983 22.7658 16.6224C22.3545 16.9086 21.8987 17.0296 21.3982 16.9823C20.8984 16.9352 20.4222 16.5265 19.9702 15.7469C20.0344 17.1166 20.6966 18.8814 22.3451 18.8008C22.1154 20.3081 22.0934 21.8679 22.1518 23.3582C22.3044 27.2481 24.3348 30.7862 27.7941 32.7925C26.8882 31.9102 26.2217 30.8377 25.6298 29.759C24.7221 28.1049 24.4218 26.183 24.3638 24.3184C24.3272 23.1437 24.3518 21.93 24.4511 20.7633C24.5302 19.8312 24.6441 18.8567 24.9102 17.9344C25.6143 17.0633 26.6443 16.4708 27.7203 16.3075C28.6276 16.1698 29.6198 16.0417 30.5397 16.348C31.2559 16.5866 31.5772 17.1364 31.5034 18.0022C31.4837 21.1144 31.4639 24.2267 31.4443 27.3389C31.4703 28.6694 30.6495 29.7604 29.7171 30.6331C31.743 30.2779 33.7708 29.937 35.8016 29.6104C35.7608 29.5761 35.7404 29.5589 35.6995 29.5246C34.7668 28.9926 34.4182 27.9085 34.453 26.8862C34.4936 20.7573 34.5341 14.6283 34.5748 8.49937"/>
</mask>
<path d="M31.4877 15.0785C31.0811 14.2942 30.1451 14.0954 29.3406 14.0065C28.3026 13.892 27.1524 14.0041 26.2607 14.6301C26.9058 12.7267 27.6337 10.1584 29.4222 9.01014C30.5377 8.29378 31.2587 8.01631 31.5316 8.14425C31.517 10.4557 31.5024 12.7672 31.4877 15.0785ZM34.5748 8.49937C34.5674 7.30995 34.9878 5.84359 36.306 5.51142C36.0322 5.51826 35.8952 5.52167 35.6213 5.5286C34.6624 5.58672 33.7037 5.64619 32.745 5.70701C29.9527 5.99474 27.1501 7.16518 25.6396 9.55806C24.3012 11.6785 23.5148 14.1983 22.7658 16.6224C22.3545 16.9086 21.8987 17.0296 21.3982 16.9823C20.8984 16.9352 20.4222 16.5265 19.9702 15.7469C20.0344 17.1166 20.6966 18.8814 22.3451 18.8008C22.1154 20.3081 22.0934 21.8679 22.1518 23.3582C22.3044 27.2481 24.3348 30.7862 27.7941 32.7925C26.8882 31.9102 26.2217 30.8377 25.6298 29.759C24.7221 28.1049 24.4218 26.183 24.3638 24.3184C24.3272 23.1437 24.3518 21.93 24.4511 20.7633C24.5302 19.8312 24.6441 18.8567 24.9102 17.9344C25.6143 17.0633 26.6443 16.4708 27.7203 16.3075C28.6276 16.1698 29.6198 16.0417 30.5397 16.348C31.2559 16.5866 31.5772 17.1364 31.5034 18.0022C31.4837 21.1144 31.4639 24.2267 31.4443 27.3389C31.4703 28.6694 30.6495 29.7604 29.7171 30.6331C31.743 30.2779 33.7708 29.937 35.8016 29.6104C35.7608 29.5761 35.7404 29.5589 35.6995 29.5246C34.7668 28.9926 34.4182 27.9085 34.453 26.8862C34.4936 20.7573 34.5341 14.6283 34.5748 8.49937" fill="white"/>
<path d="M31.4877 15.0785L31.7877 15.0804L31.2214 15.2166L31.4877 15.0785ZM29.3406 14.0065L29.3735 13.7083L29.3735 13.7083L29.3406 14.0065ZM26.2607 14.6301L26.4331 14.8756L25.6821 15.4029L25.9766 14.5338L26.2607 14.6301ZM29.4222 9.01014L29.5843 9.26257L29.5842 9.26258L29.4222 9.01014ZM31.5316 8.14425L31.659 7.87263L31.8328 7.95414L31.8316 8.14616L31.5316 8.14425ZM36.306 5.51142L36.2986 5.21151L36.3793 5.80232L36.306 5.51142ZM35.6213 5.5286L35.6031 5.22896L35.6137 5.2287L35.6213 5.5286ZM32.745 5.70701L32.7142 5.40836L32.726 5.40761L32.745 5.70701ZM25.6396 9.55806L25.3859 9.39794L25.3859 9.39792L25.6396 9.55806ZM22.7658 16.6224L23.0524 16.7109L23.0219 16.8096L22.9372 16.8686L22.7658 16.6224ZM21.3982 16.9823L21.4264 16.6837L21.4264 16.6837L21.3982 16.9823ZM19.9702 15.7469L19.6705 15.761L20.2297 15.5965L19.9702 15.7469ZM22.3451 18.8008L22.3305 18.5012L22.697 18.4833L22.6417 18.846L22.3451 18.8008ZM22.1518 23.3582L22.4516 23.3464L22.4516 23.3464L22.1518 23.3582ZM27.7941 32.7925L28.0034 32.5776L27.6436 33.052L27.7941 32.7925ZM25.6298 29.759L25.8928 29.6147L25.8928 29.6147L25.6298 29.759ZM24.3638 24.3184L24.6636 24.3091L24.6636 24.3091L24.3638 24.3184ZM24.4511 20.7633L24.75 20.7887L24.75 20.7887L24.4511 20.7633ZM24.9102 17.9344L24.6219 17.8513L24.6387 17.793L24.6769 17.7458L24.9102 17.9344ZM27.7203 16.3075L27.6753 16.0109L27.6753 16.0108L27.7203 16.3075ZM30.5397 16.348L30.6345 16.0634L30.6345 16.0634L30.5397 16.348ZM31.5034 18.0022L31.2034 18.0003L31.2035 17.9884L31.2045 17.9767L31.5034 18.0022ZM31.4443 27.3389L31.1442 27.3447L31.1443 27.337L31.4443 27.3389ZM29.7171 30.6331L29.7689 30.9286L28.7764 31.1026L29.5121 30.414L29.7171 30.6331ZM35.8016 29.6104L35.9947 29.3808L36.4961 29.8025L35.8492 29.9066L35.8016 29.6104ZM35.6995 29.5246L35.8482 29.264L35.8717 29.2774L35.8924 29.2948L35.6995 29.5246ZM34.453 26.8862L34.7531 26.8882L34.7528 26.8964L34.453 26.8862ZM31.2214 15.2166C31.0599 14.9051 30.7902 14.6997 30.449 14.5591C30.1036 14.4167 29.7024 14.3483 29.3076 14.3047L29.3735 13.7083C29.7833 13.7536 30.2524 13.8291 30.6777 14.0044C31.1074 14.1815 31.5089 14.4676 31.7541 14.9405L31.2214 15.2166ZM29.3076 14.3047C28.3053 14.1941 27.2404 14.3089 26.4331 14.8756L26.0884 14.3846C27.0645 13.6993 28.3 13.5899 29.3735 13.7083L29.3076 14.3047ZM25.9766 14.5338C26.2951 13.594 26.6458 12.4522 27.1417 11.4082C27.638 10.3635 28.2973 9.37585 29.2601 8.75769L29.5842 9.26258C28.7585 9.79273 28.1597 10.6634 27.6837 11.6657C27.2072 12.6687 26.8714 13.7628 26.5449 14.7264L25.9766 14.5338ZM29.2601 8.7577C29.8253 8.39474 30.3022 8.13526 30.6805 7.98242C30.8693 7.90615 31.0433 7.85243 31.1976 7.82841C31.3457 7.80536 31.512 7.80372 31.659 7.87263L31.4043 8.41588C31.4148 8.42082 31.3887 8.40589 31.2899 8.42126C31.1974 8.43567 31.0702 8.4721 30.9053 8.53875C30.576 8.67175 30.1346 8.90919 29.5843 9.26257L29.2601 8.7577ZM31.8316 8.14616C31.817 10.457 31.8024 12.7697 31.7877 15.0804L31.1877 15.0766C31.2024 12.7647 31.217 10.4544 31.2316 8.14235L31.8316 8.14616ZM34.2748 8.50123C34.2709 7.87562 34.3787 7.16309 34.6732 6.55344C34.9706 5.93777 35.4671 5.41344 36.2327 5.22051L36.3793 5.80232C35.8267 5.94157 35.454 6.3165 35.2134 6.81441C34.97 7.31833 34.8713 7.93369 34.8748 8.49751L34.2748 8.50123ZM36.3135 5.81132C36.0397 5.81816 35.9028 5.82158 35.6289 5.8285L35.6137 5.2287C35.8877 5.22177 36.0247 5.21835 36.2986 5.21151L36.3135 5.81132ZM35.6394 5.82805C34.6809 5.88616 33.7224 5.94561 32.764 6.00641L32.726 5.40761C33.685 5.34678 34.644 5.28729 35.6031 5.22915L35.6394 5.82805ZM32.7757 6.00543C30.0336 6.28799 27.336 7.43267 25.8933 9.7182L25.3859 9.39792C26.9642 6.8977 29.8718 5.70149 32.7142 5.40859L32.7757 6.00543ZM25.8933 9.71819C24.5797 11.7993 23.8036 14.28 23.0524 16.7109L22.4792 16.5338C23.2261 14.1167 24.0227 11.5577 25.3859 9.39794L25.8933 9.71819ZM22.9372 16.8686C22.468 17.1951 21.9415 17.3349 21.37 17.281L21.4264 16.6837C21.8558 16.7242 22.2411 16.622 22.5944 16.3761L22.9372 16.8686ZM21.3701 17.281C20.7189 17.2196 20.1748 16.698 19.7107 15.8974L20.2297 15.5965C20.6696 16.3551 21.078 16.6508 21.4264 16.6837L21.3701 17.281ZM20.2699 15.7329C20.3004 16.3835 20.4734 17.112 20.8173 17.6577C21.154 18.1919 21.6394 18.5349 22.3305 18.5012L22.3597 19.1005C21.4022 19.1472 20.7323 18.6481 20.3097 17.9777C19.8944 17.3187 19.7042 16.48 19.6705 15.761L20.2699 15.7329ZM22.6417 18.846C22.416 20.3271 22.3935 21.8659 22.4516 23.3464L21.8521 23.3699C21.7932 21.8699 21.8148 20.2891 22.0485 18.7556L22.6417 18.846ZM22.4516 23.3464C22.6003 27.1373 24.5774 30.5801 27.9446 32.533L27.6436 33.052C24.0922 30.9923 22.0085 27.3588 21.8521 23.3699L22.4516 23.3464ZM27.5848 33.0074C26.6462 32.0933 25.9625 30.9889 25.3668 29.9033L25.8928 29.6147C26.4809 30.6864 27.1302 31.7271 28.0034 32.5776L27.5848 33.0074ZM25.3668 29.9033C24.4264 28.1897 24.1226 26.2134 24.0639 24.3278L24.6636 24.3091C24.721 26.1525 25.0177 28.0201 25.8928 29.6147L25.3668 29.9033ZM24.0639 24.3278C24.027 23.1428 24.0518 21.9174 24.1521 20.7379L24.75 20.7887C24.6518 21.9425 24.6273 23.1445 24.6636 24.3091L24.0639 24.3278ZM24.1521 20.7379C24.2316 19.8018 24.3474 18.8031 24.6219 17.8513L25.1984 18.0176C24.9409 18.9103 24.8288 19.8606 24.75 20.7887L24.1521 20.7379ZM24.6769 17.7458C25.4272 16.8175 26.5239 16.1857 27.6753 16.0109L27.7654 16.6041C26.7647 16.756 25.8014 17.3091 25.1435 18.123L24.6769 17.7458ZM27.6753 16.0108C28.5756 15.8743 29.6369 15.7312 30.6345 16.0634L30.4449 16.6327C29.6027 16.3522 28.6797 16.4653 27.7653 16.6041L27.6753 16.0108ZM30.6345 16.0634C31.0482 16.2012 31.373 16.439 31.577 16.7888C31.7782 17.1338 31.8426 17.555 31.8023 18.0277L31.2045 17.9767C31.238 17.5835 31.1787 17.2969 31.0587 17.091C30.9414 16.8899 30.7474 16.7334 30.4449 16.6327L30.6345 16.0634ZM31.8034 18.0041C31.7837 21.1163 31.7639 24.2286 31.7443 27.3407L31.1443 27.337C31.1639 24.2248 31.1837 21.1124 31.2034 18.0003L31.8034 18.0041ZM31.7442 27.333C31.7728 28.796 30.8703 29.9646 29.9221 30.8521L29.5121 30.414C30.4286 29.5563 31.1677 28.5427 31.1443 27.3447L31.7442 27.333ZM29.6653 30.3376C31.6925 29.9821 33.7218 29.641 35.7539 29.3142L35.8492 29.9066C33.8199 30.2329 31.7934 30.5736 29.7689 30.9286L29.6653 30.3376ZM35.6085 29.84C35.5677 29.8057 35.5474 29.7886 35.5067 29.7544L35.8924 29.2948C35.9334 29.3292 35.9539 29.3465 35.9947 29.3808L35.6085 29.84ZM35.5509 29.7852C34.4828 29.176 34.1164 27.9567 34.1532 26.876L34.7528 26.8964C34.72 27.8602 35.0508 28.8093 35.8482 29.264L35.5509 29.7852ZM34.153 26.8842C34.1936 20.7553 34.2342 14.6263 34.2748 8.49738L34.8748 8.50136C34.8341 14.6303 34.7936 20.7593 34.753 26.8882L34.153 26.8842Z" fill="white" mask="url(#path-2-outside-1_1064_12)"/>
<path d="M55.3072 4.48718L54.9397 4.78928C54.5594 5.10198 54.0827 5.24986 53.4979 5.22075L53.4876 5.22024L53.4876 5.22059C48.7494 5.31093 44.0116 5.41585 39.274 5.53551L39.2606 5.53585C39.0777 5.54049 38.9818 5.54292 38.7946 5.54784L38.7593 5.84258C39.3184 5.99396 39.7207 6.1847 39.9803 6.40754C40.2304 6.62215 40.3477 6.86544 40.35 7.144C40.3486 7.14813 40.3466 7.15368 40.3438 7.16085C40.3346 7.18495 40.3198 7.21972 40.2989 7.2663C40.2572 7.35905 40.1943 7.49148 40.11 7.66476C39.9416 8.01098 39.6903 8.51483 39.3589 9.17892C38.4862 10.9272 38.2621 12.9635 38.2102 14.8087L38.3602 14.8129L38.2102 14.8087C38.112 18.3034 39.719 21.6145 42.0901 24.045C44.5586 26.5755 47.9668 27.9368 51.6334 27.7169L51.6245 27.5672L51.6334 27.7169C52.447 27.6681 53.2488 27.5595 53.9125 27.4553L55.3072 4.48718ZM55.3072 4.48718L55.1795 4.94541C54.6978 6.67415 53.5975 8.16097 52.5666 9.55386L52.5207 9.61593L52.2468 9.98603L52.2501 9.52564L52.2511 9.37772M55.3072 4.48718L52.2511 9.37772M39.2398 5.83648C40.0838 6.14436 40.504 6.58401 40.5 7.16037L39.2398 5.83648ZM39.2398 5.83648C39.0749 5.84066 38.9796 5.84308 38.8024 5.84774L38.7985 5.69779L38.8377 5.55301C38.9887 5.5939 39.131 5.63811 39.2643 5.68581C39.2666 5.68575 39.269 5.68569 39.2714 5.68563L39.2778 5.68547C44.015 5.56581 48.7526 5.4609 53.4905 5.37057C54.0117 5.39651 54.4604 5.28874 54.8364 5.04932C54.8553 4.98814 54.8733 4.92666 54.8905 4.86488L55.035 4.90514L55.1303 5.02101L39.2398 5.83648ZM52.2511 9.37772C52.1656 8.70354 52.0029 8.14072 51.7664 7.6849C51.5448 7.25801 51.1118 6.95166 50.432 6.78531L50.4317 6.78522C50.058 6.6927 49.6153 6.63101 49.102 6.60144C48.7395 6.63581 48.5545 6.65353 48.1883 6.68861L48.1883 6.68897L48.1779 6.68924C47.864 6.69757 47.4613 6.80746 46.9667 7.03344C46.4618 7.26422 46.1418 7.43215 45.9946 7.53631C43.5269 9.29202 42.2488 12.1943 42.3059 15.1609L42.156 15.1638L42.3059 15.1609C42.3532 17.6185 42.9462 19.8363 44.1215 21.9498C45.2213 23.9273 46.8038 25.6856 49.1589 26.123L49.159 26.1227L49.169 26.1252C49.3935 26.1831 49.5593 26.2124 49.6698 26.2182L52.2511 9.37772ZM55.0076 27.0449L54.7265 26.9524C54.1961 26.778 53.8595 26.4547 53.697 25.9784L53.6957 25.9744L53.6956 25.9745C53.658 25.8735 53.6261 25.7051 53.6052 25.4596C53.5846 25.2169 53.5754 24.9089 53.5782 24.5346L53.5782 24.5346C53.5819 24.0319 53.6036 23.5294 53.6252 23.028C53.6402 22.6802 53.6552 22.3329 53.6641 21.9865C53.6986 20.6438 53.6995 19.2642 53.7005 17.8869C53.701 17.1561 53.7014 16.426 53.707 15.7022C53.7079 15.5737 53.7088 15.4452 53.7098 15.3166C53.7149 14.5811 53.7201 13.8461 53.7417 13.1135C53.755 12.6633 53.8615 12.3054 54.0489 12.0325L54.0489 12.0325C54.2313 11.7671 54.5534 11.5469 55.0395 11.3855L54.9858 11.0933C52.8034 11.1874 50.6213 11.2883 48.4396 11.3959L48.4144 11.6922C49.27 11.8826 49.6848 12.2009 49.7844 12.5947L49.9274 12.5585L49.7844 12.5947C49.9047 13.0702 49.9618 13.468 49.9595 13.7906V13.7907L49.9246 18.7972C49.9246 18.7974 49.9246 18.7976 49.9246 18.7977C49.909 19.9956 49.8881 21.1942 49.8674 22.3916L49.8638 22.5952C49.8575 22.9641 49.867 23.3577 49.8765 23.7498C49.8826 24.0011 49.8886 24.2518 49.8905 24.4951C49.8953 25.1241 49.8726 25.7151 49.7584 26.2024C49.7572 26.2031 49.7556 26.2041 49.7534 26.2053C49.7395 26.2124 49.7117 26.2204 49.6698 26.2182L55.0076 27.0449ZM55.0076 27.0449L54.7668 27.2169M55.0076 27.0449L54.7668 27.2169M54.7668 27.2169C54.6738 27.2834 54.5454 27.3274 54.4076 27.3618M54.7668 27.2169L54.4076 27.3618M54.4076 27.3618C54.2664 27.3971 54.0976 27.4263 53.9126 27.4553L54.4076 27.3618ZM40.3529 7.1346C40.3529 7.1345 40.3527 7.13521 40.3524 7.13663L40.3529 7.1346ZM50.1068 13.7917H50.1068H50.1068Z" fill="white" stroke="white" stroke-width="0.3"/>
<path d="M64.0028 5.13458L64.0313 5.43224C63.6073 5.50773 63.2809 5.62152 63.0511 5.7634C62.8227 5.90441 62.6978 6.0675 62.6548 6.24361L62.6548 6.24364C62.4611 7.03628 62.4728 7.92305 62.4886 8.79H62.4887L62.4887 8.7943L62.3192 24.9633L62.3194 24.9633L62.3188 24.9727C62.2973 25.2671 62.4137 25.5496 62.6967 25.8239L62.6967 25.8239C62.9886 26.1069 63.3044 26.2967 63.6444 26.398L63.6151 26.6911C61.4501 26.8869 59.2872 27.0995 57.1254 27.3287L56.5807 27.3865L57.02 27.0593C57.2546 26.8846 57.3719 26.7973 57.6065 26.6236L57.6065 26.6236L57.6103 26.6209C58.1524 26.245 58.4606 25.5563 58.4869 24.5076L58.4869 24.5076C58.5321 22.7216 58.5661 20.9028 58.6003 19.0796C58.657 16.0545 58.7139 13.0171 58.8219 10.0962C58.8237 9.78461 58.8266 9.47294 58.8295 9.16141C58.8379 8.24422 58.8463 7.32829 58.8289 6.42019C58.8261 6.27368 58.7751 6.15324 58.6746 6.05156C58.5707 5.94651 58.4073 5.85505 58.1713 5.78642C57.9201 5.71336 57.7299 5.65533 57.6017 5.61263C57.5382 5.59145 57.487 5.57308 57.4505 5.55785C57.433 5.55055 57.4139 5.54195 57.3973 5.53226C57.3897 5.52779 57.3762 5.51945 57.3627 5.50705C57.3559 5.50078 57.345 5.48979 57.335 5.4739C57.3252 5.45833 57.3112 5.42971 57.3113 5.39134L57.312 5.24462L57.4587 5.24201C59.64 5.20332 61.8214 5.16751 64.0028 5.13458Z" fill="white" stroke="white" stroke-width="0.3"/>
<path d="M77.7837 7.97724L77.7837 7.98513L77.7665 12.1631C77.6745 12.0163 77.5844 11.8723 77.462 11.6766L77.4613 11.6754C75.8473 9.14461 73.9739 6.7427 71.3769 5.11234L71.3394 5.08884L71.2953 5.08939C69.559 5.11116 67.8228 5.13465 66.0866 5.15984L66.0532 5.45554C67.2397 5.74535 67.7168 6.97196 67.5678 8.16455L67.5667 8.17338L67.5666 8.18228L67.4793 23.2406L67.4792 23.25L67.4803 23.2593C67.4976 23.4038 67.4885 23.5518 67.4798 23.6924C67.4787 23.7103 67.4776 23.7281 67.4766 23.7457L77.7837 7.97724ZM77.7837 7.97724L77.7846 7.9694C77.848 7.39102 77.7636 6.78956 77.5154 6.30468C77.269 5.82341 76.8623 5.45696 76.2691 5.33067L76.2981 5.03397C78.0297 5.00759 79.7613 4.9831 81.4929 4.9603M77.7837 7.97724L81.4929 4.9603M81.4929 4.9603C81.4979 4.96023 81.5028 4.96017 81.5077 4.9601L81.5097 5.10999L81.5097 5.11009L81.5097 5.11019L81.511 5.26008L81.4929 4.9603ZM80.8908 5.26832C81.0932 5.26561 81.2956 5.26292 81.498 5.26026C80.9148 5.2708 80.5558 5.65468 80.3382 6.19756C80.118 6.74698 80.06 7.42576 80.0726 7.92411L80.0732 7.9241L80.0724 7.93723L80.0361 8.5182C80.035 8.6761 80.0342 8.83441 80.0334 8.99301C80.03 9.69146 80.0266 10.3955 79.9921 11.0933C79.9691 11.5587 79.9439 12.2151 79.9162 13.051C79.9108 13.211 79.9055 13.3712 79.9001 13.5314C79.8619 14.6762 79.8235 15.8242 79.7983 16.9701L79.7983 16.9703L79.7575 18.6968L79.7575 18.6969C79.7301 19.8091 79.687 20.6073 79.627 21.0855C79.5673 21.5603 79.4899 21.9715 79.3945 22.3156M80.8908 5.26832L79.3946 22.3155C79.3945 22.3156 79.3945 22.3156 79.3945 22.3156M80.8908 5.26832C80.0736 5.72912 79.9015 7.09003 79.9227 7.9279L80.8908 5.26832ZM79.3945 22.3156C79.3008 22.6544 79.1894 23.0136 79.0612 23.3919C78.9312 23.7761 78.7227 24.2866 78.405 24.8011C77.8643 25.6767 77.0202 26.4616 76.234 27.1577L76.2264 27.1643L76.2181 27.1699C75.9283 27.3644 75.7835 27.4618 75.4938 27.6575L75.3081 27.423C78.1566 24.7935 78.4578 20.8468 77.7141 17.3804C77.2022 14.9949 75.5518 12.8068 73.8989 10.9352C73.7497 10.7662 73.5946 10.5851 73.4337 10.3971C72.9956 9.88548 72.5138 9.32264 71.986 8.81346C71.3174 8.16838 70.594 7.62923 69.8256 7.40307M79.3945 22.3156L69.8256 7.40307M69.8256 7.40307L69.8215 14.1958L69.8215 14.1965L69.7698 23.5512C69.7767 24.0843 69.8409 24.7305 70.0633 25.2398C70.1739 25.4931 70.3206 25.7054 70.5122 25.8547C70.7017 26.0023 70.9429 26.0944 71.2559 26.0967L71.2656 26.3963C69.5006 26.5247 67.7363 26.6656 65.9734 26.8212L65.9136 26.5293C65.9652 26.5123 66.0081 26.4983 66.0483 26.4851C66.1249 26.46 66.1915 26.4382 66.2898 26.4062C66.7593 26.2331 67.0447 25.8131 67.2198 25.2974C67.3949 24.7817 67.4498 24.198 67.4766 23.7458L69.8256 7.40307Z" fill="white" stroke="white" stroke-width="0.3"/>
<path d="M99.6838 24.9202C99.2205 24.6879 98.9082 24.3535 98.747 23.9149C98.6549 23.6849 98.6092 23.2249 98.6092 22.5349C98.6092 22.2276 98.6233 21.846 98.6397 21.4015C98.653 21.0422 98.6678 20.6418 98.6779 20.2062C98.7067 18.9588 98.697 17.6715 98.6873 16.3842C98.6824 15.7398 98.6775 15.0955 98.6775 14.4562C98.6775 13.3061 98.6831 12.5154 98.6946 12.0843C98.7061 11.6534 98.8147 11.3034 99.0206 11.0351M99.6838 24.9202L95.2095 12.5371C95.2098 12.2305 95.147 11.8563 95.0217 11.4159C94.923 11.0692 94.5933 10.7944 94.0332 10.5923C93.8656 10.5931 93.698 10.5939 93.5303 10.5947L93.5296 10.4447L93.5643 10.2988C93.7416 10.3409 93.9068 10.3886 94.0586 10.4422C95.9107 10.4341 97.7626 10.4307 99.6146 10.4322C99.7464 10.3769 99.8904 10.3289 100.046 10.2876L100.084 10.4326L100.084 10.5826C99.9378 10.5825 99.7915 10.5823 99.6452 10.5822C99.3684 10.7022 99.1602 10.8532 99.0206 11.0351M99.6838 24.9202C99.7431 24.9077 99.7843 24.8936 99.8106 24.879L99.8834 25.0102L99.8271 25.1492C99.7707 25.1264 99.7159 25.1023 99.6628 25.0769C99.515 25.1022 99.3207 25.1138 99.0914 25.1229M99.6838 24.9202L96.8113 25.276M99.0206 11.0351L99.1395 11.1264M99.0206 11.0351L99.1396 11.1264C99.1396 11.1264 99.1395 11.1264 99.1395 11.1264M99.0914 25.1229L99.0973 25.2728C99.2843 25.2653 99.4535 25.2561 99.5945 25.2384C99.7313 25.2213 99.8605 25.1944 99.9562 25.1413L100.231 24.9889L99.9396 24.8711C99.3973 24.6517 99.054 24.3154 98.8877 23.8632L98.8863 23.8592L98.8862 23.8592C98.8482 23.7641 98.8153 23.6084 98.7928 23.3825C98.7706 23.1592 98.7592 22.8771 98.7592 22.5349C98.7592 22.229 98.7731 21.8527 98.7894 21.4118C98.8027 21.0529 98.8176 20.6511 98.8278 20.2097C98.8567 18.9601 98.847 17.6686 98.8372 16.3798C98.8324 15.7361 98.8275 15.093 98.8275 14.4561C98.8275 13.3059 98.8331 12.5171 98.8445 12.0883C98.8554 11.6802 98.9577 11.3634 99.1395 11.1264M99.0914 25.1229L99.0973 25.2728M99.0914 25.1229C98.4296 25.1492 97.632 25.1654 96.8185 25.1261L99.0973 25.2728M99.1395 11.1264C99.3168 10.8955 99.6352 10.7069 100.123 10.5776L100.085 10.2826C97.8993 10.2799 95.7141 10.284 93.5289 10.2947L93.4949 10.5906C94.3595 10.7963 94.7769 11.1037 94.8774 11.457L94.8774 11.457C95.0006 11.89 95.0598 12.2494 95.0595 12.5369V12.5369L95.0561 17.0525C95.0561 17.0527 95.0561 17.0529 95.0561 17.0531C95.0491 17.9019 95.0392 18.7508 95.0293 19.5998C95.0259 19.8917 95.0224 20.1836 95.0192 20.4755C95.0155 20.8042 95.0273 21.1589 95.0391 21.5122C95.0468 21.7432 95.0545 21.9737 95.0578 22.1959C95.0662 22.758 95.0472 23.2794 94.9416 23.6958C94.9264 23.6999 94.8992 23.7032 94.8606 23.6977C94.7474 23.6816 94.5789 23.6387 94.3524 23.5652L94.344 23.5624L94.3439 23.5627C92.1244 22.9841 90.3787 21.3722 89.2473 19.4204L89.2473 19.4204C88.1222 17.4794 87.4362 15.5473 87.3922 13.3656C87.3394 10.746 88.6762 8.18908 91.0378 6.81341L91.0401 6.81211C91.1868 6.72321 91.5066 6.58144 92.0113 6.38666C92.5056 6.19603 92.9097 6.10513 93.2268 6.10413L93.2361 6.1041L93.236 6.10381C93.6029 6.07992 93.788 6.06787 94.1514 6.04437C94.6666 6.08141 95.1114 6.14632 95.4874 6.23821L95.4877 6.2383C96.1734 6.40418 96.6092 6.69383 96.8323 7.08507L96.8324 7.08509C97.0708 7.50308 97.2367 8.01736 97.3266 8.6312V8.63143V8.63174V8.63206V8.63237V8.63269V8.633V8.63331V8.63363V8.63394V8.63425V8.63456V8.63487V8.63518V8.63549V8.6358V8.63611V8.63641V8.63672V8.63703V8.63733V8.63764V8.63794V8.63825V8.63855V8.63885V8.63916V8.63946V8.63976V8.64006V8.64036V8.64067V8.64096V8.64126V8.64156V8.64186V8.64216V8.64246V8.64275V8.64305V8.64334V8.64364V8.64394V8.64423V8.64453V8.64482V8.64511V8.6454V8.6457V8.64599V8.64628V8.64657V8.64686V8.64715V8.64744V8.64773V8.64802V8.64831V8.6486V8.64888V8.64917V8.64946V8.64974V8.65003V8.65031V8.6506V8.65088V8.65117V8.65145V8.65174V8.65202V8.6523V8.65258V8.65286V8.65315V8.65343V8.65371V8.65399V8.65427V8.65455V8.65483V8.65511V8.65538V8.65566V8.65594V8.65622V8.65649V8.65677V8.65705V8.65732V8.6576V8.65788V8.65815V8.65842V8.6587V8.65897V8.65925V8.65952V8.65979V8.66006V8.66034V8.66061V8.66088V8.66115V8.66142V8.6617V8.66196V8.66224V8.66251V8.66278V8.66304V8.66331V8.66358V8.66385V8.66412V8.66439V8.66465V8.66492V8.66519V8.66545V8.66572V8.66599V8.66625V8.66652V8.66678V8.66705V8.66731V8.66758V8.66784V8.66811V8.66837V8.66864V8.6689V8.66916V8.66943V8.66969V8.66995V8.67021V8.67048V8.67074V8.671V8.67126V8.67152V8.67178V8.67204V8.67231V8.67257V8.67283V8.67309V8.67335V8.67361V8.67387V8.67413V8.67438V8.67464V8.6749V8.67516V8.67542V8.67568V8.67594V8.67619V8.67645V8.67671V8.67697V8.67722V8.67748V8.67774V8.67799V8.67825V8.67851V8.67876V8.67902V8.67928V8.67953V8.67979V8.68004V8.6803V8.68056V8.68081V8.68107V8.68132V8.68158V8.68183V8.68209V8.68234V8.6826V8.68285V8.68311V8.68336V8.68361V8.68387V8.68412V8.68438V8.68463V8.68489V8.68514V8.68539V8.68565V8.6859V8.68615V8.68641V8.68666V8.68691V8.68717V8.68742V8.68767V8.68793V8.68818V8.68843V8.68869V8.68894V8.68919V8.68944V8.6897V8.68995V8.6902V8.69046V8.69071V8.69096V8.69121V8.69147V8.69172V8.69197V8.69223V8.69248V8.69273V8.69298V8.69324V8.69349V8.69374V8.69399V8.69425V8.6945V8.69475V8.69501V8.69526V8.69551V8.69577V8.69602V8.69627V8.69653V8.69678V8.69703V8.69728V8.69754V8.69779V8.69805V8.6983V8.69855V8.6988V8.69906V8.69931V8.69957V8.69982V8.70008V8.70033V8.70058V8.70084V8.70109V8.70135V8.7016V8.70185V8.70211V8.70236V8.70262V8.70287V8.70313V8.70338V8.70364V8.7039V8.70415V8.70441V8.70466V8.70492V8.70517V8.70543V8.70569V8.70594V8.7062V8.70646V8.70671V8.70697V8.70723V8.70749V8.70774V8.708V8.70826V8.70852V8.70877V8.70903V8.70929V8.70955V8.70981V8.71007V8.71033V8.71058V8.71085V8.71111V8.71136V8.71162V8.71189V8.71214V8.71241V8.71267V8.71293V8.71319V8.71345V8.71371V8.71397V8.71424V8.7145V8.71476V8.71502V8.71529V8.71555V8.71581V8.71608V8.71634V8.71661V8.71687V8.71714V8.7174V8.71767V8.71793V8.7182V8.71846V8.71873V8.719V8.71926V8.71953V8.7198V8.72006V8.72033V8.7206V8.72087V8.72114V8.72141V8.72168V8.72195V8.72222V8.72249V8.72276V8.72303V8.7233V8.72357V8.72384V8.72411V8.72439V8.72466V8.72493V8.7252V8.72548V8.72575V8.72603V8.7263V8.72658V8.72685V8.72713V8.7274V8.72768V8.72796V8.72823V8.72851V8.72879V8.72907V8.72935V8.72962V8.7299V8.73018V8.73046V8.73074V8.73102V8.7313V8.73159V8.73187V8.73215V8.73243V8.73272V8.733V8.73328V8.73357V8.73385V8.73414V8.73442V8.73471V8.73499V8.73528V8.73557V8.73586V8.73614V8.73643V8.73672V8.73701V8.7373V8.73759V8.73788V8.73817V8.73846V8.73875V8.73905V8.73934V8.73963V8.73993V8.74022V8.74051V8.74081V8.74111V8.7414V8.7417V8.74199V8.74229V8.74259V8.74289V8.74319V8.74349V8.74379V8.74409V8.74439V8.74469V8.74499V8.74529V8.7456V8.7459V8.7462V8.74651V8.74681V8.74712V8.74742V8.74773V8.74804V8.74834V8.74865V8.74896V8.74927V8.74958V8.74989V8.7502V8.75051V8.75082V8.75114V8.75145V8.75176V8.75208V8.75239V8.75271V8.75302V8.75334V8.75366V8.75397V8.75429V8.75461V8.75493V8.75525V8.75557V8.75589V8.75621V8.75653V8.75686V8.75718V8.7575V8.75783V8.75815V8.75848V8.75881V8.75913V8.75946V8.75979V8.76012V8.76045V8.76078V8.76111V8.76144V8.76177V8.7621V8.76244V8.76277V8.76311V8.76344V8.76378V8.76411V9.18123L97.5922 8.85964L97.6134 8.83397C98.639 7.59239 99.7481 6.24981 100.226 4.63811L100.354 4.20561L99.9926 4.4752C99.6153 4.75638 99.1384 4.88461 98.5494 4.84775L98.54 4.84717V4.84746C93.7984 4.84854 89.0568 4.86438 84.3153 4.89479L83.8355 4.89803L83.8004 5.19361C84.3624 5.3331 84.7678 5.50556 85.0294 5.70373C85.2791 5.89284 85.3904 6.09843 85.396 6.32289C85.3952 6.32487 85.3942 6.32715 85.3931 6.32971C85.3843 6.34952 85.3701 6.37872 85.3495 6.41849C85.3085 6.49756 85.2465 6.61069 85.1629 6.75885C84.996 7.05477 84.7467 7.48487 84.4169 8.04989L84.546 8.12523L84.4169 8.04989C83.5798 9.4844 83.2978 11.2873 83.283 12.8861L83.4215 12.8874L83.283 12.8861C83.2529 16.1572 85.019 19.0153 87.2213 21.1489C89.7596 23.608 93.1664 25.1001 96.8113 25.276M96.8113 25.276C97.631 25.3156 98.4335 25.2992 99.0973 25.2728M96.8113 25.276L99.0973 25.2728M97.6232 8.58649C98.5636 7.44634 99.5293 6.23927 100.009 4.82573C100.065 4.79175 100.119 4.7551 100.172 4.71574L100.082 4.59547L99.9384 4.55283C99.9213 4.61057 99.9033 4.66797 99.8845 4.72504C99.5099 4.93926 99.0618 5.0301 98.54 4.99746C93.8142 4.99854 89.0885 5.01427 84.3629 5.04449C84.3474 5.03926 84.3318 5.03407 84.3161 5.02892C84.178 4.98362 84.0301 4.94151 83.8726 4.90244L83.8365 5.04803L83.8376 5.19802L84.3172 5.19478C84.3243 5.19474 84.3313 5.19469 84.3384 5.19465L97.6232 8.58649ZM97.6232 8.58649C97.6238 8.59061 97.6244 8.59473 97.625 8.59886L97.6266 8.60954V8.62034V8.62067V8.62101V8.62135V8.62168V8.62201V8.62235V8.62268V8.62301V8.62334V8.62367V8.624V8.62433V8.62466V8.62499V8.62532V8.62565V8.62597V8.6263V8.62662V8.62695V8.62727V8.62759V8.62792V8.62824V8.62856V8.62888V8.6292V8.62952V8.62984V8.63016V8.63048V8.6308V8.63111V8.63143V8.63174V8.63206V8.63237V8.63269V8.633V8.63331V8.63363V8.63394V8.63425V8.63456V8.63487V8.63518V8.63549V8.6358V8.63611V8.63641V8.63672V8.63703V8.63733V8.63764V8.63794V8.63825V8.63855V8.63885V8.63916V8.63946V8.63976V8.64006V8.64036V8.64067V8.64096V8.64126V8.64156V8.64186V8.64216V8.64246V8.64275V8.64305V8.64334V8.64364V8.64394V8.64423V8.64453V8.64482V8.64511V8.6454V8.6457V8.64599V8.64628V8.64657V8.64686V8.64715V8.64744V8.64773V8.64802V8.64831V8.6486V8.64888V8.64917V8.64946V8.64974V8.65003V8.65031V8.6506V8.65088V8.65117V8.65145V8.65174V8.65202V8.6523V8.65258V8.65286V8.65315V8.65343V8.65371V8.65399V8.65427V8.65455V8.65483V8.65511V8.65538V8.65566V8.65594V8.65622V8.65649V8.65677V8.65705V8.65732V8.6576V8.65788V8.65815V8.65842V8.6587V8.65897V8.65925V8.65952V8.65979V8.66006V8.66034V8.66061V8.66088V8.66115V8.66142V8.6617V8.66196V8.66224V8.66251V8.66278V8.66304V8.66331V8.66358V8.66385V8.66412V8.66439V8.66465V8.66492V8.66519V8.66545V8.66572V8.66599V8.66625V8.66652V8.66678V8.66705V8.66731V8.66758V8.66784V8.66811V8.66837V8.66864V8.6689V8.66916V8.66943V8.66969V8.66995V8.67021V8.67048V8.67074V8.671V8.67126V8.67152V8.67178V8.67204V8.67231V8.67257V8.67283V8.67309V8.67335V8.67361V8.67387V8.67413V8.67438V8.67464V8.6749V8.67516V8.67542V8.67568V8.67594V8.67619V8.67645V8.67671V8.67697V8.67722V8.67748V8.67774V8.67799V8.67825V8.67851V8.67876V8.67902V8.67928V8.67953V8.67979V8.68004V8.6803V8.68056V8.68081V8.68107V8.68132V8.68158V8.68183V8.68209V8.68234V8.6826V8.68285V8.68311V8.68336V8.68361V8.68387V8.68412V8.68438V8.68463V8.68489V8.68514V8.68539V8.68565V8.6859V8.68615V8.68641V8.68666V8.68691V8.68717V8.68742V8.68767V8.68793V8.68818V8.68843V8.68869V8.68894V8.68919V8.68944V8.6897V8.68995V8.6902V8.69046V8.69071V8.69096V8.69121V8.69147V8.69172V8.69197V8.69223V8.69248V8.69273V8.69298V8.69324V8.69349V8.69374V8.69399V8.69425V8.6945V8.69475V8.69501V8.69526V8.69551V8.69577V8.69602V8.69627V8.69653V8.69678V8.69703V8.69728V8.69754V8.69779V8.69805V8.6983V8.69855V8.6988V8.69906V8.69931V8.69957V8.69982V8.70008V8.70033V8.70058V8.70084V8.70109V8.70135V8.7016V8.70185V8.70211V8.70236V8.70262V8.70287V8.70313V8.70338V8.70364V8.7039V8.70415V8.70441V8.70466V8.70492V8.70517V8.70543V8.70569V8.70594V8.7062V8.70646V8.70671V8.70697V8.70723V8.70749V8.70774V8.708V8.70826V8.70852V8.70877V8.70903V8.70929V8.70955V8.70981V8.71007V8.71033V8.71058V8.71085V8.71111V8.71136V8.71162V8.71189V8.71214V8.71241V8.71267V8.71293V8.71319V8.71345V8.71371V8.71397V8.71424V8.7145V8.71476V8.71502V8.71529V8.71555V8.71581V8.71608V8.71634V8.71661V8.71687V8.71714V8.7174V8.71767V8.71793V8.7182V8.71846V8.71873V8.719V8.71926V8.71953V8.7198V8.72006V8.72033V8.7206V8.72087V8.72114V8.72141V8.72168V8.72195V8.72222V8.72249V8.72276V8.72303V8.7233V8.72357V8.72384V8.72411V8.72439V8.72466V8.72493V8.7252V8.72548V8.72575V8.72603V8.7263V8.72658V8.72685V8.72713V8.7274V8.72768V8.72796V8.72823V8.72851V8.72879V8.72907V8.72935V8.72962V8.7299V8.73018V8.73046V8.73074V8.73102V8.7313V8.73159V8.73187V8.73215V8.73243V8.73272V8.733V8.73328V8.73357V8.73385V8.73414V8.73442V8.73471V8.73499V8.73528V8.73557V8.73586V8.73614V8.73643V8.73672V8.73701V8.7373V8.73759V8.73788V8.73817V8.73846V8.73875V8.73905V8.73934V8.73963V8.73993V8.74022V8.74051V8.74081V8.74111V8.7414V8.7417V8.74199V8.74229V8.74259V8.74289V8.74319V8.74349V8.74379V8.74409V8.74439V8.74469V8.74499V8.74529V8.7456V8.7459V8.7462V8.74651V8.74681V8.74712V8.74742V8.74773V8.74804V8.74834V8.74865V8.74896V8.74927V8.74958V8.74989V8.7502V8.75051V8.75082V8.75114V8.75145V8.75176V8.75208V8.75239V8.75271V8.75302V8.75334V8.75366V8.75397V8.75429V8.75461V8.75493V8.75525V8.75557V8.75589V8.75621V8.75653V8.75686V8.75718V8.7575V8.75783V8.75815V8.75848V8.75881V8.75913V8.75946V8.75979V8.76012V8.76045V8.76078V8.76111V8.76144V8.76177V8.7621V8.76244V8.76277V8.76311V8.76344V8.76378V8.76411H97.4766L97.3609 8.66858L97.3629 8.66618L97.6232 8.58649ZM85.4002 6.31223C85.4012 6.30952 85.4008 6.31001 85.4 6.31294L85.4002 6.31223ZM94.9355 23.7193L94.9355 23.7193L94.9355 23.7193Z" fill="white" stroke="white" stroke-width="0.3"/>
<path d="M132.146 1.69149L132.145 1.69185C131.258 2.09415 130.814 2.29341 129.926 2.68945L129.531 2.86593L129.951 2.97188C131.326 3.31872 132.614 4.14065 133.406 5.30959L133.531 5.22543L133.406 5.3096C134.188 6.46256 134.673 7.88667 134.744 9.28635C134.842 11.2231 134.289 13.1543 133.608 14.9429L133.608 14.9429C133.011 16.5118 132.345 18.1477 131.377 19.5445C131.369 19.5539 131.363 19.5591 131.357 19.5619C130.46 17.4833 129.777 15.2933 129.096 13.1121C128.86 12.3544 128.624 11.5977 128.38 10.8472C128.138 10.1042 127.847 9.3244 127.553 8.53576C127.328 7.93042 127.101 7.31987 126.892 6.71674C126.406 5.31507 126.01 3.9283 125.923 2.64089L125.923 2.64085C125.916 2.52715 125.982 2.38283 126.196 2.21761C126.407 2.05457 126.737 1.89269 127.185 1.74541L127.153 1.4537C126.258 1.36148 125.345 1.35799 124.466 1.35817C123.358 1.3583 122.233 1.3934 121.111 1.42839C120.641 1.44308 120.17 1.45774 119.703 1.46979L119.556 1.47357L119.556 1.62052C119.557 1.76554 119.666 1.88105 119.779 1.96777C119.901 2.06194 120.076 2.15892 120.297 2.25978C120.509 2.35616 120.688 2.45635 120.827 2.55656C120.968 2.65802 121.059 2.75302 121.105 2.83587L121.105 2.8359C121.532 3.60482 121.864 4.51547 122.165 5.46869C122.294 5.87612 122.418 6.29514 122.542 6.71324C122.706 7.26336 122.869 7.8119 123.04 8.33038C123.223 8.88184 123.454 9.47117 123.686 10.0615C123.835 10.4427 123.985 10.8244 124.122 11.1965C124.476 12.1577 124.748 13.0654 124.76 13.815L124.76 13.815C124.765 14.1546 124.625 14.5627 124.422 15.0033C124.3 15.2656 124.165 15.5231 124.031 15.7774C123.938 15.9544 123.846 16.1299 123.759 16.3043M132.146 1.69149L123.894 16.3707M132.146 1.69149C132.761 1.4171 133.235 1.20937 133.566 1.0701C133.732 1.00055 133.864 0.947437 133.961 0.911503C134.009 0.893595 134.051 0.879265 134.084 0.869211C134.112 0.861044 134.152 0.849831 134.188 0.849831C134.363 0.849831 134.54 0.963402 134.711 1.12231C134.888 1.28721 135.087 1.52896 135.309 1.84302C136.451 3.36167 136.977 5.32211 136.982 7.18807C136.993 10.6923 135.488 14.1786 134.141 17.2984L134.124 17.3383L134.124 17.3383L134.122 17.3426C132.795 20.1692 131.331 22.9358 129.871 25.6927C129.671 26.0712 129.471 26.4495 129.271 26.8278L129.107 27.1385L128.996 26.805C127.868 23.4122 126.73 20.0231 125.583 16.6369C125.55 16.6486 125.522 16.6604 125.499 16.6722C125.448 16.6979 125.434 16.7168 125.432 16.7201L125.429 16.7267L125.424 16.7328C124.889 17.4709 124.483 18.3042 124.079 19.1346C124.033 19.2284 123.987 19.3222 123.941 19.4158L123.811 19.3521L123.941 19.4158C123.799 19.7062 123.658 20.0001 123.517 20.2953C123.192 20.9717 122.864 21.6548 122.511 22.318L122.511 22.318L122.509 22.3222C121.867 23.4394 121.256 24.5732 120.643 25.7091C120.618 25.7549 120.593 25.8007 120.569 25.8464L120.422 26.1178M132.146 1.69149L120.422 26.1178M123.759 16.3043L123.894 16.3707M123.759 16.3043C123.759 16.3042 123.759 16.3042 123.759 16.3042L123.894 16.3707M123.759 16.3043C123.707 16.4115 123.654 16.5189 123.602 16.6261C123.261 17.3293 122.926 18.0216 122.397 18.5611M123.894 16.3707C123.842 16.4763 123.79 16.5829 123.738 16.6899C123.377 17.4358 123.007 18.1992 122.396 18.7723M122.397 18.5611C122.428 18.5925 122.462 18.6262 122.502 18.6665L122.396 18.7723M122.397 18.5611C122.363 18.5956 122.329 18.6296 122.293 18.6628L122.396 18.7723M122.397 18.5611L122.396 18.7723M110.974 1.58015C111.013 1.6274 111.076 1.67706 111.157 1.73032C111.096 1.73026 111.035 1.73021 110.973 1.73015L110.974 1.58015ZM110.974 1.58015L111.088 1.48357C111.111 1.51027 111.148 1.54232 111.203 1.58036C111.127 1.58029 111.05 1.58022 110.974 1.58015ZM118.234 1.58816C118.133 1.58802 118.032 1.58789 117.931 1.58776C118.005 1.54254 118.083 1.49844 118.164 1.45563L118.234 1.58816ZM118.234 1.58816L118.234 1.73816C118.147 1.73804 118.06 1.73793 117.974 1.73782C118.056 1.68665 118.142 1.63667 118.234 1.58816ZM120.422 26.1178L120.299 25.8351M120.422 26.1178L120.299 25.8351M120.299 25.8351C119.88 24.8731 119.554 23.8602 119.232 22.8644M120.299 25.8351L119.232 22.8644M119.232 22.8644C119.122 22.5235 119.013 22.1847 118.901 21.8506L119.232 22.8644ZM122.216 18.3794C122.22 18.3905 122.224 18.4016 122.227 18.4127L122.085 18.4604L122.191 18.3545L122.192 18.3549C122.2 18.3633 122.208 18.3715 122.216 18.3794ZM111.73 2.209L111.797 2.07472L111.73 2.20901C111.73 2.209 111.73 2.209 111.73 2.209ZM112.459 2.79551C112.459 2.79481 112.459 2.79411 112.458 2.79342L112.587 2.71613L112.461 2.79739C112.46 2.79676 112.46 2.79613 112.459 2.79551Z" fill="white" stroke="white" stroke-width="0.3"/>
<mask id="path-9-outside-2_1064_12" maskUnits="userSpaceOnUse" x="137.095" y="4.44983" width="22" height="25" fill="black">
<rect fill="white" x="137.095" y="4.44983" width="22" height="25"/>
<path d="M152.532 20.1014C152.173 21.9864 151.583 23.906 150.414 25.499C150.119 25.8577 149.814 26.1585 149.496 26.4016C148.974 26.8378 148.622 27.0413 148.439 27.0175C147.785 26.2776 147.228 25.4722 146.676 24.6552C146.4 24.2784 146.156 23.8076 145.914 23.3423C145.394 22.3434 145.026 21.103 144.794 19.9822C144.527 18.6914 144.317 17.3303 144.321 16.0004C144.327 13.5265 144.501 10.4164 146.392 8.51235C146.183 8.11638 145.451 7.86527 144.195 7.76153C143.304 7.72258 142.413 7.6847 141.522 7.64799C142.311 7.15369 143.28 6.8476 144.118 6.67036C144.986 6.48682 146.005 6.39559 146.959 6.42339C149.29 6.49132 151.858 7.26111 152.392 9.78004C152.683 11.1544 152.9 12.6239 152.901 14.0527C152.901 16.0617 152.904 18.1445 152.532 20.1014ZM155.867 7.43125C155.218 7.04095 154.824 6.81926 154.733 6.74872C153.901 6.42609 153.063 6.08707 152.194 5.90353C150.935 5.63749 149.615 5.61931 148.323 5.57766C146.678 5.52475 145.019 5.86691 143.5 6.33477C141.965 6.80748 140.456 7.47515 139.095 8.42381C140.374 8.3387 141.05 8.63876 141.019 9.21187C140.959 10.3523 140.73 11.6735 140.788 12.8774C140.819 13.5353 140.861 14.1187 140.919 14.5722C141.018 15.3423 141.192 16.0833 141.38 16.7492C141.998 19.2586 143.203 21.531 144.512 23.7389C145.048 24.6388 145.742 25.4508 146.38 26.2699C146.961 27.0172 147.648 28.1895 148.381 28.4461C148.503 28.4887 149.204 28.1687 150.051 27.4945C150.88 26.8354 151.422 26.2033 151.648 25.9228C152.917 24.3544 153.934 22.5691 154.726 20.7684C155.549 18.8933 156.232 16.822 156.429 14.7853C156.515 13.9062 156.536 12.9647 156.582 12.0664C156.652 10.7173 156.785 9.88054 156.942 9.59155C157.1 9.30319 157.453 9.15906 158 9.16149C157.324 8.54348 156.645 7.89874 155.867 7.43125"/>
</mask>
<path d="M152.532 20.1014C152.173 21.9864 151.583 23.906 150.414 25.499C150.119 25.8577 149.814 26.1585 149.496 26.4016C148.974 26.8378 148.622 27.0413 148.439 27.0175C147.785 26.2776 147.228 25.4722 146.676 24.6552C146.4 24.2784 146.156 23.8076 145.914 23.3423C145.394 22.3434 145.026 21.103 144.794 19.9822C144.527 18.6914 144.317 17.3303 144.321 16.0004C144.327 13.5265 144.501 10.4164 146.392 8.51235C146.183 8.11638 145.451 7.86527 144.195 7.76153C143.304 7.72258 142.413 7.6847 141.522 7.64799C142.311 7.15369 143.28 6.8476 144.118 6.67036C144.986 6.48682 146.005 6.39559 146.959 6.42339C149.29 6.49132 151.858 7.26111 152.392 9.78004C152.683 11.1544 152.9 12.6239 152.901 14.0527C152.901 16.0617 152.904 18.1445 152.532 20.1014ZM155.867 7.43125C155.218 7.04095 154.824 6.81926 154.733 6.74872C153.901 6.42609 153.063 6.08707 152.194 5.90353C150.935 5.63749 149.615 5.61931 148.323 5.57766C146.678 5.52475 145.019 5.86691 143.5 6.33477C141.965 6.80748 140.456 7.47515 139.095 8.42381C140.374 8.3387 141.05 8.63876 141.019 9.21187C140.959 10.3523 140.73 11.6735 140.788 12.8774C140.819 13.5353 140.861 14.1187 140.919 14.5722C141.018 15.3423 141.192 16.0833 141.38 16.7492C141.998 19.2586 143.203 21.531 144.512 23.7389C145.048 24.6388 145.742 25.4508 146.38 26.2699C146.961 27.0172 147.648 28.1895 148.381 28.4461C148.503 28.4887 149.204 28.1687 150.051 27.4945C150.88 26.8354 151.422 26.2033 151.648 25.9228C152.917 24.3544 153.934 22.5691 154.726 20.7684C155.549 18.8933 156.232 16.822 156.429 14.7853C156.515 13.9062 156.536 12.9647 156.582 12.0664C156.652 10.7173 156.785 9.88054 156.942 9.59155C157.1 9.30319 157.453 9.15906 158 9.16149C157.324 8.54348 156.645 7.89874 155.867 7.43125" fill="white"/>
<path d="M152.532 20.1014L152.237 20.0453L152.237 20.0453L152.532 20.1014ZM150.414 25.499L150.656 25.6765L150.651 25.683L150.646 25.6892L150.414 25.499ZM149.496 26.4016L149.304 26.1712L149.314 26.1634L149.496 26.4016ZM148.439 27.0175L148.4 27.315L148.289 27.3004L148.215 27.2163L148.439 27.0175ZM146.676 24.6552L146.918 24.4775L146.925 24.4874L146.676 24.6552ZM145.914 23.3423L145.648 23.4808L145.648 23.4808L145.914 23.3423ZM144.794 19.9822L144.5 20.043L144.5 20.043L144.794 19.9822ZM144.321 16.0004L144.021 15.9996L144.021 15.9996L144.321 16.0004ZM146.392 8.51235L146.657 8.37268L146.76 8.56751L146.604 8.72372L146.392 8.51235ZM144.195 7.76153L144.208 7.46159L144.219 7.46255L144.195 7.76153ZM141.522 7.64799L141.51 7.94774L140.542 7.90786L141.363 7.39374L141.522 7.64799ZM144.118 6.67036L144.056 6.37685L144.056 6.37685L144.118 6.67036ZM146.959 6.42339L146.95 6.72326L146.95 6.72326L146.959 6.42339ZM152.392 9.78004L152.685 9.71783L152.685 9.71783L152.392 9.78004ZM152.901 14.0527L153.201 14.0526L153.201 14.0526L152.901 14.0527ZM154.733 6.74872L154.841 6.46901L154.882 6.48473L154.916 6.5113L154.733 6.74872ZM152.194 5.90353L152.132 6.19705L152.132 6.19705L152.194 5.90353ZM148.323 5.57766L148.332 5.27781L148.332 5.27781L148.323 5.57766ZM143.5 6.33477L143.411 6.04806L143.411 6.04805L143.5 6.33477ZM139.095 8.42381L139.115 8.72315L138.039 8.79485L138.924 8.17771L139.095 8.42381ZM141.019 9.21187L140.72 9.19599L140.72 9.19598L141.019 9.21187ZM140.788 12.8774L141.087 12.863L141.087 12.863L140.788 12.8774ZM140.919 14.5722L141.217 14.5338L141.217 14.5339L140.919 14.5722ZM141.38 16.7492L141.669 16.6678L141.671 16.6775L141.38 16.7492ZM144.512 23.7389L144.254 23.8925L144.254 23.8919L144.512 23.7389ZM146.38 26.2699L146.143 26.4542L146.143 26.4542L146.38 26.2699ZM148.381 28.4461L148.48 28.1629L148.48 28.163L148.381 28.4461ZM150.051 27.4945L150.238 27.7293L150.238 27.7293L150.051 27.4945ZM151.648 25.9228L151.415 25.7344L151.415 25.7342L151.648 25.9228ZM154.726 20.7684L155 20.8891L155 20.8891L154.726 20.7684ZM156.429 14.7853L156.131 14.7563L156.131 14.7563L156.429 14.7853ZM156.582 12.0664L156.283 12.0511L156.283 12.051L156.582 12.0664ZM156.942 9.59155L156.679 9.44783L156.679 9.44778L156.942 9.59155ZM158 9.16149L158.203 8.93997L158.777 9.46494L157.999 9.46149L158 9.16149ZM152.826 20.1574C152.464 22.061 151.863 24.0313 150.656 25.6765L150.172 25.3215C151.303 23.7808 151.882 21.9118 152.237 20.0453L152.826 20.1574ZM150.646 25.6892C150.339 26.063 150.017 26.3807 149.678 26.6398L149.314 26.1634C149.61 25.9364 149.9 25.6523 150.182 25.3087L150.646 25.6892ZM149.688 26.6319C149.422 26.8548 149.188 27.0268 148.991 27.1414C148.893 27.1988 148.796 27.2458 148.704 27.2769C148.614 27.3071 148.509 27.3292 148.4 27.315L148.478 26.72C148.461 26.7178 148.468 26.7233 148.512 26.7084C148.554 26.6944 148.612 26.6678 148.69 26.6227C148.845 26.5325 149.048 26.3847 149.304 26.1714L149.688 26.6319ZM148.215 27.2163C147.546 26.4602 146.979 25.6401 146.428 24.823L146.925 24.4874C147.476 25.3043 148.024 26.095 148.664 26.8187L148.215 27.2163ZM146.435 24.8328C146.142 24.4336 145.887 23.9402 145.648 23.4808L146.18 23.2037C146.425 23.675 146.658 24.1232 146.918 24.4777L146.435 24.8328ZM145.648 23.4808C145.11 22.448 144.735 21.1779 144.5 20.043L145.088 19.9213C145.317 21.028 145.677 22.2388 146.18 23.2037L145.648 23.4808ZM144.5 20.043C144.231 18.7437 144.017 17.3594 144.021 15.9996L144.621 16.0012C144.617 17.3011 144.822 18.6392 145.088 19.9213L144.5 20.043ZM144.021 15.9996C144.024 14.759 144.069 13.3372 144.356 11.9805C144.644 10.6235 145.178 9.30853 146.179 8.30097L146.604 8.72372C145.714 9.62022 145.217 10.8124 144.943 12.1049C144.669 13.3978 144.624 14.7679 144.621 16.0012L144.021 15.9996ZM146.126 8.65201C146.076 8.5567 145.931 8.42832 145.589 8.31121C145.256 8.19737 144.787 8.11144 144.17 8.06051L144.219 7.46255C144.859 7.51536 145.384 7.60685 145.783 7.7435C146.173 7.87687 146.499 8.07203 146.657 8.37268L146.126 8.65201ZM144.181 8.06125C143.291 8.0223 142.4 7.98443 141.51 7.94774L141.535 7.34824C142.426 7.38496 143.317 7.42285 144.208 7.46182L144.181 8.06125ZM141.363 7.39374C142.194 6.87338 143.201 6.55781 144.056 6.37685L144.18 6.96387C143.36 7.1374 142.429 7.434 141.681 7.90224L141.363 7.39374ZM144.056 6.37685C144.948 6.1882 145.991 6.09505 146.968 6.12351L146.95 6.72326C146.02 6.69613 145.024 6.78543 144.18 6.96387L144.056 6.37685ZM146.968 6.12351C148.157 6.15819 149.432 6.37184 150.487 6.91596C151.552 7.46513 152.396 8.35467 152.685 9.71783L152.098 9.84226C151.853 8.68648 151.147 7.93166 150.212 7.44922C149.267 6.96172 148.091 6.75652 146.95 6.72326L146.968 6.12351ZM152.685 9.71783C152.979 11.1035 153.2 12.5953 153.201 14.0526L152.601 14.0528C152.6 12.6525 152.387 11.2053 152.098 9.84225L152.685 9.71783ZM153.201 14.0526C153.201 16.0558 153.205 18.1678 152.826 20.1574L152.237 20.0453C152.603 18.1212 152.601 16.0676 152.601 14.0528L153.201 14.0526ZM155.712 7.68835C155.389 7.49391 155.13 7.34185 154.938 7.22824C154.758 7.12147 154.614 7.03595 154.55 6.98615L154.916 6.5113C154.943 6.53204 155.042 6.59263 155.244 6.71192C155.434 6.82436 155.696 6.97829 156.022 7.17414L155.712 7.68835ZM154.625 7.02844C153.784 6.70258 152.971 6.37444 152.132 6.19705L152.256 5.61001C153.154 5.7997 154.018 6.14959 154.841 6.46901L154.625 7.02844ZM152.132 6.19705C150.905 5.93776 149.617 5.9195 148.313 5.8775L148.332 5.27781C149.614 5.31912 150.965 5.33721 152.256 5.61001L152.132 6.19705ZM148.313 5.8775C146.714 5.82607 145.091 6.15882 143.588 6.62148L143.411 6.04805C144.948 5.57501 146.642 5.22344 148.332 5.27781L148.313 5.8775ZM143.588 6.62148C142.076 7.08725 140.597 7.74285 139.267 8.66991L138.924 8.17771C140.316 7.20746 141.854 6.52771 143.411 6.04806L143.588 6.62148ZM139.076 8.12448C139.732 8.08074 140.276 8.13179 140.664 8.29427C140.861 8.37684 141.033 8.49432 141.153 8.65711C141.276 8.82414 141.33 9.01987 141.319 9.22777L140.72 9.19598C140.724 9.11731 140.705 9.06062 140.67 9.01286C140.631 8.96086 140.56 8.90119 140.432 8.84775C140.17 8.7382 139.737 8.68178 139.115 8.72315L139.076 8.12448ZM141.319 9.22776C141.288 9.80565 141.214 10.4358 141.158 11.0484C141.1 11.6689 141.059 12.283 141.087 12.863L140.488 12.8918C140.458 12.2679 140.502 11.6194 140.56 10.9932C140.619 10.3591 140.69 9.75849 140.72 9.19599L141.319 9.22776ZM141.087 12.863C141.119 13.5185 141.16 14.0924 141.217 14.5338L140.622 14.6106C140.562 14.145 140.52 13.552 140.488 12.8918L141.087 12.863ZM141.217 14.5339C141.313 15.2848 141.483 16.0108 141.668 16.6679L141.091 16.8306C140.901 16.1558 140.723 15.3997 140.622 14.6105L141.217 14.5339ZM141.671 16.6775C142.278 19.1421 143.464 21.3832 144.77 23.586L144.254 23.8919C142.942 21.6789 141.717 19.3752 141.088 16.821L141.671 16.6775ZM144.77 23.5854C145.293 24.4641 145.967 25.2516 146.616 26.0857L146.143 26.4542C145.517 25.65 144.803 24.8136 144.254 23.8925L144.77 23.5854ZM146.616 26.0856C146.766 26.2781 146.922 26.4973 147.078 26.7139C147.236 26.9329 147.395 27.1518 147.557 27.3542C147.894 27.773 148.202 28.0656 148.48 28.1629L148.282 28.7292C147.827 28.5699 147.425 28.1481 147.089 27.7298C146.916 27.5137 146.749 27.2833 146.591 27.0644C146.432 26.8429 146.284 26.6354 146.143 26.4542L146.616 26.0856ZM148.48 28.163C148.417 28.1407 148.374 28.1546 148.398 28.15C148.409 28.1481 148.433 28.142 148.473 28.1279C148.55 28.0999 148.662 28.0499 148.802 27.9747C149.081 27.8251 149.454 27.5868 149.865 27.2598L150.238 27.7293C149.802 28.0765 149.4 28.3352 149.086 28.5035C148.929 28.5873 148.79 28.6514 148.676 28.6925C148.619 28.7129 148.561 28.7301 148.507 28.7401C148.467 28.7475 148.376 28.7621 148.282 28.7292L148.48 28.163ZM149.865 27.2598C150.67 26.6185 151.198 26.0039 151.415 25.7344L151.882 26.1112C151.647 26.4026 151.089 27.0523 150.238 27.7293L149.865 27.2598ZM151.415 25.7342C152.664 24.1907 153.668 22.4295 154.451 20.6478L155 20.8891C154.201 22.7088 153.17 24.5182 151.882 26.1115L151.415 25.7342ZM154.451 20.6478C155.268 18.7884 155.937 16.7496 156.131 14.7563L156.728 14.8143C156.526 16.8945 155.831 18.9983 155 20.8891L154.451 20.6478ZM156.131 14.7563C156.215 13.8862 156.236 12.9614 156.283 12.0511L156.882 12.0817C156.837 12.9679 156.814 13.9262 156.728 14.8143L156.131 14.7563ZM156.283 12.051C156.318 11.3709 156.369 10.8141 156.432 10.3873C156.494 9.97437 156.572 9.64418 156.679 9.44783L157.206 9.73527C157.155 9.82791 157.088 10.0606 157.026 10.4756C156.966 10.8767 156.916 11.4128 156.882 12.0818L156.283 12.051ZM156.679 9.44778C156.918 9.01027 157.42 8.85891 158.002 8.86149L157.999 9.46149C157.485 9.45921 157.282 9.59611 157.206 9.73532L156.679 9.44778ZM157.798 9.38301C157.113 8.75699 156.459 8.13688 155.712 7.68838L156.021 7.17412C156.831 7.66061 157.535 8.32996 158.203 8.93997L157.798 9.38301Z" fill="white" mask="url(#path-9-outside-2_1064_12)"/>
<path d="M175.956 23.4784L175.959 24.0848L175.86 24.8646C174.994 29.096 172.206 31.3686 167.912 30.2596C166.948 30.0106 165.742 29.4319 165.514 28.3449L175.956 23.4784ZM175.956 23.4784L175.955 23.1592M175.956 23.4784L175.955 23.1592M175.955 23.1592C175.906 22.9468 175.856 22.7363 175.806 22.528L175.952 22.4928L176.102 22.4922L176.105 23.1417C176.595 25.2921 176.949 27.6639 176.05 29.6697C175.313 31.3132 174.324 32.7076 173.045 34.0309C173.049 34.0358 173.052 34.0406 173.056 34.0455L172.939 34.1392L172.832 34.0341C172.836 34.0303 172.84 34.0265 172.843 34.0227C172.023 33.0537 170.843 32.3466 169.694 31.9685C168.585 31.604 167.373 31.3807 166.18 31.161C165.962 31.1209 165.745 31.081 165.53 31.0404L175.955 23.1592ZM175.806 23.479V23.479L175.802 22.4934L176.098 22.4576C176.654 24.7635 177.201 27.4678 176.187 29.731C175.421 31.4379 174.388 32.8779 173.046 34.2442L172.928 34.365L172.822 34.2328C172.021 33.2311 170.82 32.497 169.647 32.111L169.688 31.9871L169.647 32.111C168.549 31.7499 167.348 31.5288 166.155 31.3089C165.937 31.2688 165.719 31.2287 165.503 31.1879C163.775 30.8736 162.045 30.5714 160.312 30.2837L160.314 29.9875C161.551 29.7945 162.244 28.7052 162.15 27.4558L162.15 27.4558L162.15 27.4455L162.031 8.79571L162.031 8.78836L162.032 8.78104C162.143 7.56865 161.624 6.3629 160.496 5.89647L160.558 5.60791C162.84 5.67081 165.122 5.73676 167.404 5.80577L167.425 6.1034C166.08 6.34162 165.457 7.64889 165.548 8.9703L165.548 8.97028L165.548 8.97965L165.606 18.6618L165.664 28.3286C165.771 28.8153 166.095 29.1979 166.522 29.4931C166.954 29.7916 167.479 29.9926 167.95 30.1144L167.95 30.1144C170.064 30.6603 171.786 30.3699 173.084 29.4427C174.384 28.5138 175.283 26.9292 175.711 24.8401L175.809 24.0756L175.806 23.479Z" fill="white" stroke="white" stroke-width="0.3"/>
<path d="M192.093 6.68999L192.075 6.68924C187.836 6.5137 183.595 6.34994 179.354 6.19806L179.31 6.49271C180.249 6.74804 181.122 7.40147 181.121 8.38929L181.121 8.39008C181.158 15.6114 181.194 22.8326 181.23 30.0539L181.23 30.0573L181.23 30.0573C181.246 30.6233 181.164 31.2694 180.93 31.8154C180.698 32.3596 180.321 32.7924 179.75 32.9658L179.198 33.1336L179.762 33.2559C181.69 33.674 183.615 34.1049 185.538 34.5487L185.646 34.2727C185.04 33.9231 184.645 33.3482 184.402 32.6844C184.159 32.02 184.073 31.2753 184.082 30.605L184.082 30.6049C184.088 30.1157 184.083 29.7237 184.08 29.447C184.079 29.3434 184.078 29.2559 184.078 29.1855V29.1855L184.049 19.1482C184.049 18.9636 184.093 18.8202 184.173 18.7086C184.253 18.5965 184.379 18.5041 184.562 18.4374C184.904 18.3128 185.305 18.3956 185.784 18.7594L185.79 18.7642L185.79 18.7641C185.931 18.8597 186.073 18.9568 186.216 19.0545C187.37 19.8449 188.584 20.676 189.916 21.1433L189.916 21.1433C190.522 21.3557 191.127 21.171 191.578 20.6273C191.986 20.1366 192.206 19.4841 192.347 18.8193C192.448 18.3395 192.509 17.8393 192.566 17.3782C192.588 17.2019 192.609 17.0312 192.631 16.8697L192.338 16.8122C192.112 17.7001 191.817 18.234 191.478 18.4706L191.478 18.4706L192.093 6.68999ZM192.093 6.68999L192.111 6.69497M192.093 6.68999L192.111 6.69497M192.111 6.69497C193.065 6.96983 193.49 7.77058 193.643 8.6353C193.796 9.49858 193.687 10.4598 193.549 11.1341C193.189 12.8972 192.167 14.4706 191.103 15.901L190.847 15.7481C191.385 14.5954 191.629 13.3137 191.717 12.1065C191.784 11.1922 191.52 10.376 191.001 9.78069C190.482 9.18606 189.702 8.8016 188.717 8.76561L188.714 8.76548C187.318 8.69061 185.921 8.61798 184.525 8.54686C184.339 8.57345 184.218 8.63579 184.143 8.71854C184.067 8.80243 184.021 8.92677 184.021 9.1108V9.11083L184.031 12.7913L184.041 16.087C184.381 15.8123 184.853 15.719 185.427 15.7898C186.408 15.9107 187.246 16.494 187.979 17.0037L187.985 17.0078L187.985 17.0078M192.111 6.69497L187.985 17.0078M187.985 17.0078C188.088 17.079 188.19 17.1512 188.294 17.2237C188.943 17.6795 189.611 18.148 190.3 18.4775L187.985 17.0078ZM181.271 8.38932C181.308 15.6106 181.344 22.8318 181.38 30.0531L193.402 11.104C193.675 9.77236 193.822 7.34385 192.069 6.83911C188 6.67064 183.931 6.51301 179.86 6.36633C179.705 6.30029 179.546 6.24594 179.388 6.20321L179.349 6.34796L179.344 6.49786C179.505 6.50364 179.667 6.50944 179.828 6.51526C180.606 6.85147 181.272 7.48078 181.271 8.38932Z" fill="white" stroke="white" stroke-width="0.3"/>
<path d="M44.9961 38.7589L46.2793 38.6341C46.3565 39.0648 46.5124 39.3812 46.7471 39.5831C46.9847 39.7851 47.304 39.8861 47.705 39.8861C48.1297 39.8861 48.449 39.797 48.6629 39.6188C48.8797 39.4376 48.9882 39.2267 48.9882 38.9861C48.9882 38.8317 48.9421 38.701 48.85 38.594C48.7609 38.4841 48.6035 38.3891 48.3778 38.3089C48.2233 38.2554 47.8713 38.1604 47.3218 38.0237C46.6149 37.8485 46.1189 37.6332 45.8337 37.3777C45.4327 37.0183 45.2322 36.5802 45.2322 36.0634C45.2322 35.7307 45.3258 35.4203 45.5129 35.1322C45.703 34.8411 45.9748 34.6198 46.3283 34.4683C46.6847 34.3168 47.1139 34.2411 47.6159 34.2411C48.4357 34.2411 49.052 34.4208 49.4649 34.7802C49.8807 35.1396 50.099 35.6193 50.1198 36.2193L48.801 36.2772C48.7446 35.9416 48.6228 35.701 48.4357 35.5554C48.2515 35.4069 47.9738 35.3327 47.6025 35.3327C47.2194 35.3327 46.9194 35.4114 46.7025 35.5688C46.5629 35.6698 46.4931 35.8049 46.4931 35.9742C46.4931 36.1287 46.5585 36.2609 46.6892 36.3708C46.8555 36.5104 47.2594 36.6559 47.901 36.8074C48.5426 36.9589 49.0164 37.1163 49.3223 37.2797C49.6312 37.4401 49.8718 37.6614 50.0441 37.9435C50.2193 38.2228 50.307 38.5688 50.307 38.9817C50.307 39.3559 50.203 39.7064 49.9951 40.0331C49.7872 40.3599 49.4931 40.6034 49.1129 40.7638C48.7327 40.9213 48.2589 41 47.6916 41C46.8659 41 46.2317 40.8099 45.7892 40.4297C45.3466 40.0465 45.0822 39.4896 44.9961 38.7589Z" fill="#E1BB34"/>
<path d="M57.5363 37.6584C57.5363 36.9931 57.6358 36.4346 57.8348 35.9832C57.9834 35.6505 58.1853 35.352 58.4408 35.0876C58.6992 34.8233 58.9814 34.6272 59.2873 34.4995C59.6942 34.3272 60.1635 34.2411 60.6952 34.2411C61.6576 34.2411 62.4269 34.5396 63.0031 35.1366C63.5823 35.7337 63.8719 36.5638 63.8719 37.6272C63.8719 38.6817 63.5853 39.5074 63.012 40.1044C62.4388 40.6985 61.6724 40.9955 60.713 40.9955C59.7418 40.9955 58.9695 40.7 58.3962 40.1089C57.823 39.5148 57.5363 38.698 57.5363 37.6584ZM58.8952 37.6138C58.8952 38.3534 59.066 38.9148 59.4076 39.298C59.7492 39.6782 60.1829 39.8683 60.7086 39.8683C61.2343 39.8683 61.665 39.6797 62.0007 39.3024C62.3393 38.9223 62.5086 38.3534 62.5086 37.596C62.5086 36.8475 62.3437 36.2891 62.014 35.9208C61.6873 35.5525 61.2522 35.3683 60.7086 35.3683C60.165 35.3683 59.7269 35.5554 59.3942 35.9297C59.0616 36.301 58.8952 36.8624 58.8952 37.6138Z" fill="#E1BB34"/>
<path d="M71.3285 40.8841V34.4059H72.6473V39.7836H75.9265V40.8841H71.3285Z" fill="#E1BB34"/>
<path d="M83.2495 34.3525H84.5683V37.8901C84.5683 38.4515 84.5846 38.8153 84.6173 38.9817C84.6737 39.249 84.8074 39.4643 85.0183 39.6277C85.2321 39.7881 85.5232 39.8683 85.8915 39.8683C86.2658 39.8683 86.548 39.7925 86.7381 39.6411C86.9282 39.4866 87.0425 39.298 87.0811 39.0752C87.1198 38.8525 87.1391 38.4827 87.1391 37.9658V34.3525H88.4579V37.7831C88.4579 38.5673 88.4222 39.1213 88.3509 39.445C88.2797 39.7688 88.1475 40.042 87.9544 40.2648C87.7643 40.4876 87.5089 40.6658 87.1881 40.7995C86.8673 40.9302 86.4485 40.9955 85.9316 40.9955C85.3079 40.9955 84.8341 40.9242 84.5104 40.7816C84.1896 40.6361 83.9356 40.449 83.7485 40.2203C83.5614 39.9886 83.4381 39.7465 83.3787 39.494C83.2925 39.1198 83.2495 38.5673 83.2495 37.8366V34.3525Z" fill="#E1BB34"/>
<path d="M97.71 40.8841V35.4574H95.7719V34.3525H100.962V35.4574H99.0288V40.8841H97.71Z" fill="#E1BB34"/>
<path d="M108.165 40.8841V34.3525H109.484V40.8841H108.165Z" fill="#E1BB34"/>
<path d="M116.865 37.6584C116.865 36.9931 116.964 36.4346 117.163 35.9832C117.312 35.6505 117.514 35.352 117.769 35.0876C118.028 34.8233 118.31 34.6272 118.616 34.4995C119.023 34.3272 119.492 34.2411 120.024 34.2411C120.986 34.2411 121.755 34.5396 122.332 35.1366C122.911 35.7337 123.2 36.5638 123.2 37.6272C123.2 38.6817 122.914 39.5074 122.34 40.1044C121.767 40.6985 121.001 40.9955 120.041 40.9955C119.07 40.9955 118.298 40.7 117.725 40.1089C117.151 39.5148 116.865 38.698 116.865 37.6584ZM118.224 37.6138C118.224 38.3534 118.394 38.9148 118.736 39.298C119.078 39.6782 119.511 39.8683 120.037 39.8683C120.563 39.8683 120.993 39.6797 121.329 39.3024C121.668 38.9223 121.837 38.3534 121.837 37.596C121.837 36.8475 121.672 36.2891 121.342 35.9208C121.016 35.5525 120.581 35.3683 120.037 35.3683C119.493 35.3683 119.055 35.5554 118.723 35.9297C118.39 36.301 118.224 36.8624 118.224 37.6138Z" fill="#E1BB34"/>
<path d="M130.635 40.8841V34.3525H131.918L134.591 38.7143V34.3525H135.816V40.8841H134.493L131.86 36.6247V40.8841H130.635Z" fill="#E1BB34"/>
<path d="M143.268 38.7589L144.552 38.6341C144.629 39.0648 144.785 39.3812 145.019 39.5831C145.257 39.7851 145.576 39.8861 145.977 39.8861C146.402 39.8861 146.721 39.797 146.935 39.6188C147.152 39.4376 147.261 39.2267 147.261 38.9861C147.261 38.8317 147.215 38.701 147.122 38.594C147.033 38.4841 146.876 38.3891 146.65 38.3089C146.496 38.2554 146.144 38.1604 145.594 38.0237C144.887 37.8485 144.391 37.6332 144.106 37.3777C143.705 37.0183 143.505 36.5802 143.505 36.0634C143.505 35.7307 143.598 35.4203 143.785 35.1322C143.975 34.8411 144.247 34.6198 144.601 34.4683C144.957 34.3168 145.386 34.2411 145.888 34.2411C146.708 34.2411 147.324 34.4208 147.737 34.7802C148.153 35.1396 148.371 35.6193 148.392 36.2193L147.073 36.2772C147.017 35.9416 146.895 35.701 146.708 35.5554C146.524 35.4069 146.246 35.3327 145.875 35.3327C145.492 35.3327 145.192 35.4114 144.975 35.5688C144.835 35.6698 144.766 35.8049 144.766 35.9742C144.766 36.1287 144.831 36.2609 144.962 36.3708C145.128 36.5104 145.532 36.6559 146.173 36.8074C146.815 36.9589 147.289 37.1163 147.595 37.2797C147.904 37.4401 148.144 37.6614 148.316 37.9435C148.492 38.2228 148.579 38.5688 148.579 38.9817C148.579 39.3559 148.475 39.7064 148.267 40.0331C148.06 40.3599 147.766 40.6034 147.385 40.7638C147.005 40.9213 146.531 41 145.964 41C145.138 41 144.504 40.8099 144.062 40.4297C143.619 40.0465 143.355 39.4896 143.268 38.7589Z" fill="#E1BB34"/>
</svg>
