<svg width="2180" height="801" viewBox="0 0 2180 801" fill="none" xmlns="http://www.w3.org/2000/svg">
<path fill-rule="evenodd" clip-rule="evenodd" d="M349.52 150.952C349.52 150.952 346.1 132.386 357.839 122.413C369.636 112.303 384.78 96.6466 374.679 76.6872C384.78 80.8541 384.78 96.6466 384.78 96.6466C384.78 96.6466 427.896 87.5853 452.446 112.303C431.171 107.668 354.563 128.096 374.679 170.801C379.665 153.628 378.027 136.565 414.867 128.096C409.882 137.835 448.519 149.448 453.606 163.725C438.461 166.622 413.287 169.519 419.911 185.188C436.765 186.581 463.635 189.367 480.518 183.795C468.751 177.988 461.446 169.519 466.982 154.207C469.359 165.574 517.46 180.774 546.445 187.506C575.633 194.249 602.503 211.299 603.604 221.865C619.299 207.588 636.14 201.905 648.488 203.643C660.69 205.727 687.096 207.934 700.53 193.768C713.907 179.394 729.037 165.105 713.907 149.448C740.776 163.725 735.733 183.795 735.733 199.353C735.733 215.244 744.124 237.99 725.704 237.99C707.211 237.99 693.835 233.811 693.835 233.811C693.835 233.811 690.357 223.837 702.168 208.747C692.965 212.224 677.878 235.906 698.009 267.232C718.197 298.793 719.008 315.276 715.603 326.531C712.255 337.91 694.328 327.579 694.328 327.579C694.328 327.579 689.893 348.352 714.516 359.953C702.168 357.981 670.792 344.641 651.893 320.848C632.72 296.944 605.85 277.218 593.575 272.225C603.604 280.818 619.299 296.007 623.72 302.75C609.256 290.447 545.416 258.073 539.764 242.638C535.315 254.238 554.358 267.578 554.358 267.578C554.358 267.578 512.402 270.832 487.171 276.516C461.997 282.322 376.259 269.439 320.868 206.541C347.752 218.03 369.636 212.224 383.215 207.934C367.868 192.388 351.158 170.801 315.883 176.608C300.753 163.725 327.622 150.952 349.52 150.952Z" fill="#6D6F71" fill-opacity="0.8"/>
<path fill-rule="evenodd" clip-rule="evenodd" d="M724.604 377.159L745.821 383.656C745.821 383.656 745.821 427.52 801.748 451.424C799.632 456.183 810.82 464.776 824.124 460.14C823.095 463.851 817.979 463.851 813.066 463.259C813.066 465.121 819.139 470.927 829.747 471.975C840.428 472.789 880.732 464.776 874.587 433.671C892.471 432.402 922.065 422.416 940.615 427.988C950.717 437.962 991.035 481.838 991.035 481.838C991.035 481.838 952.978 436.112 955.152 399.904C968.586 420.912 975.311 445.741 975.311 445.741C975.311 445.741 979.847 390.387 979.847 367.53C988.716 368.566 996.557 367.53 998.876 359.986C1001.14 352.317 1012.86 309.501 974.253 260.879C935.645 212.256 930.601 189.387 947.311 170.821C932.239 180.807 923.775 198.091 938.992 226.52C954.137 255.306 932.239 266.562 932.239 266.562C932.239 266.562 792.806 100.957 950.717 0.814563C934.007 -4.7578 840.964 73.2306 872.341 165.606C842.066 142.737 829.747 45.6031 854.472 0.000923902C823.095 20.8973 787.226 83.6727 798.472 120.004C778.284 123.715 740.227 135.192 751.415 160.034C802.834 165.606 847.718 184.752 865.587 209.47C883.471 234.188 928.355 296.976 950.717 296.976C940.615 306.715 918.253 281.886 912.587 278.866C919.282 295.805 932.239 309.033 942.326 311.942C941.847 318.439 931.688 382.842 943.963 409.533C936.195 400.952 931.688 382.842 931.688 382.842C931.688 382.842 909.311 370.304 895.877 382.842C882.442 395.146 885.79 415.216 896.964 419.864C874.587 423.698 862.385 430.54 837.631 403.726C836.472 419.864 852.153 433.326 865.587 434.251C865.587 439.823 839.805 430.54 833.124 431.465C826.37 432.402 786.096 428.691 784.965 380.981C772.69 381.918 770.444 421.836 791.719 435.175C777.125 431.465 749.154 404.663 753.661 368.566C749.154 371.352 745.821 377.159 745.821 377.159H724.604Z" fill="#6D6F71" fill-opacity="0.51"/>
<path fill-rule="evenodd" clip-rule="evenodd" d="M1512.64 173.377C1512.64 173.377 1559.77 180.799 1586.58 194.274C1613.52 207.613 1631.46 222.814 1662.77 224.675C1627.03 230.359 1604.58 224.675 1584.39 215.269C1564.33 205.751 1521.71 213.296 1521.71 213.296C1521.71 213.296 1576.55 213.296 1601.31 233.256C1625.87 253.215 1642.58 248.456 1642.58 248.456C1642.58 248.456 1598.93 258.097 1570.48 260.871C1541.97 263.657 1538.57 301.961 1538.57 301.961C1538.57 301.961 1539.45 282.692 1536.51 262.276C1524.16 330.858 1491.49 371.246 1451.25 407.441C1458.35 405.235 1482.5 384.819 1482.5 384.819C1482.5 384.819 1467.48 411.276 1436.18 423.69C1442.79 424.159 1471.44 418.007 1479.7 403.731C1495.32 377.163 1528.39 323.77 1562.02 310.887C1595.51 298.127 1630.91 317.975 1635.93 290.816C1615.78 292.32 1572.04 289.546 1572.04 289.546C1572.04 289.546 1647.7 275.036 1773.68 295.23C1802.26 293.726 1790.39 278.057 1790.39 278.057C1790.39 278.057 1951.71 275.036 1986.91 152.37C1948.37 202.386 1881.19 228.041 1864.27 233.835C1882.82 219.325 1931.45 182.426 1944.9 178.013C1924.77 167.928 1850.97 178.013 1827.3 196.702C1856.01 200.882 1881.19 185.213 1881.19 185.213C1881.19 185.213 1887.87 212.248 1731.67 209.462C1639.3 206.565 1577.86 165.598 1512.64 173.377Z" fill="#6D6F71" fill-opacity="0.8"/>
<path fill-rule="evenodd" clip-rule="evenodd" d="M1336.99 402.228C1336.99 402.228 1326.82 445.279 1291.7 445.279C1256.3 445.279 1258.01 418.008 1258.01 418.008C1258.01 418.008 1252.95 440.865 1261.34 453.748C1249.55 445.279 1249.55 406.753 1249.55 379.483C1249.55 352.324 1247.91 299.522 1263.05 272.252C1278.2 245.327 1341.43 188.469 1353.83 175.352C1366.05 161.889 1388.52 148.661 1412.09 153.309C1425.4 146.565 1442.24 134.274 1448.92 118.95C1445.51 144.716 1435.56 160.854 1410.79 167.696C1386.31 174.193 1379.56 178.015 1361.62 200.884C1343.68 223.863 1296.68 273.411 1296.68 273.411C1296.68 273.411 1340.33 238.016 1353.83 218.994C1360.46 238.016 1368.37 262.734 1345.92 274.224C1323.56 285.714 1309.1 285.714 1302.27 308.46C1307.94 303.812 1317.97 293.259 1317.97 293.259C1317.97 293.259 1302.27 319.95 1302.27 345.592C1302.27 371.358 1314.62 412.202 1300.08 421.83C1309.1 422.878 1315.98 408.023 1314.28 392.242C1322.68 386.67 1335.28 389.58 1336.99 402.228Z" fill="#6D6F71" fill-opacity="0.51"/>
<path fill-rule="evenodd" clip-rule="evenodd" d="M1793.79 376.699C1793.79 376.699 1825.77 399.445 1802.25 412.205C1819.02 410.935 1816.24 399.445 1816.24 399.445C1816.24 399.445 1845.9 485.089 1808.86 528.14C1771.89 570.968 1689.7 602.417 1666.17 599.508C1694.82 603.798 1732.12 587.673 1752.38 576.183C1736.76 593.356 1715.48 609.605 1685.19 612.391C1703.06 619.936 1732.12 621.908 1739.98 618.888C1737.74 625.619 1694.09 660.779 1613.5 683.759C1694.09 666.697 1704.85 665.895 1714.8 665.304C1724.89 664.379 1749.99 660.779 1768.56 676.683C1787.11 692.352 1807.22 706.505 1862.68 703.829C1824.08 700.821 1800.47 694.201 1775.84 670.408C1751.29 646.626 1723.22 655.33 1718.89 655.33C1733.41 646.626 1763.57 645.702 1780.42 659.041C1797.19 672.38 1824.08 665.649 1824.08 665.649C1824.08 665.649 1800.47 661.827 1790.38 641.979C1816.24 635.247 1859.96 638.034 1863.22 638.958C1856.54 629.564 1846.38 621.908 1846.38 621.908C1846.38 621.908 1877.76 613.784 1919.77 636.653C1961.73 659.509 1895.77 683.759 1891.12 710.45C1911.31 710.45 1922.5 706.505 1949.44 729.484C1976.25 752.464 1978.57 800.039 2050.19 800.039C1989.76 767.542 1989.76 731.457 1976.25 710.45C1962.89 689.442 1940.36 691.415 1940.36 691.415C1940.36 691.415 2009.87 680.048 2074.75 689.442C2139.75 699.071 2142 649.523 2142 649.523C2110.62 657.192 2027.75 653.358 1978.57 636.061C2018.81 640.006 2074.75 647.674 2097.12 640.006C2043.51 636.061 2003.19 622.833 1960.63 617.26C1918.06 611.466 1906.94 590.459 1908.99 571.313C1944.87 569.452 1954.97 570.968 1973.48 572.349C1968.41 562.486 1916.44 550.885 1874.41 552.389C1899.51 535.216 1940.36 531.394 1983.07 537.078C1953.87 523.849 1919.77 525.119 1919.77 525.119C1919.77 525.119 1983.48 512.359 1993.71 465.118C2017.12 466.634 2117.93 479.406 2180 432.398C2082.59 445.281 2018.81 445.281 1985.25 429.378C2023.86 433.668 2094.46 439.475 2126.3 420.909C2072.64 432.398 2003.67 427.985 1965.13 410.935C1926.45 393.762 1849.18 355.224 1793.79 376.699Z" fill="#6D6F71" fill-opacity="0.8"/>
<path fill-rule="evenodd" clip-rule="evenodd" d="M1308.48 622.366C1319.25 605.193 1349.61 602.407 1365.57 605.193C1365.57 605.193 1350.42 596.255 1320.21 604.737C1289.92 613.194 1220.56 700.7 1201.46 710.217C1182.48 719.611 1191.5 694.203 1185.83 690.368C1180.17 686.547 1136.46 678.065 1136.46 678.065L1263.95 580.82C1263.95 580.82 1254.69 584.42 1247.9 589.881C1246.27 586.392 1258.96 571.191 1265.77 564.226C1272.53 558.543 1286.11 543.219 1274.85 532.308C1284.87 555.177 1192.53 590.806 1184.14 608.09C1175.67 625.275 1143.27 651.263 1130.93 654.752C1118.72 658.106 1123.15 640.008 1123.15 628.986C1123.15 618.076 1117.83 580.129 1134.62 571.66C1151.38 563.067 1198.46 512.928 1204.33 497.962C1210.12 483.34 1232.02 471.394 1239.11 455.947C1234.75 462.913 1197.17 488.802 1185.83 509.452C1174.11 530.927 1143.82 547.977 1123.66 556.681C1130.38 545.191 1128.75 486.595 1120.36 468.029C1111.89 449.462 1115.37 429.38 1120.36 412.207C1128.75 415.227 1143.82 403.737 1143.82 390.854C1143.82 377.971 1148.93 369.502 1170.63 342.232C1164.01 342.232 1145.59 360.909 1137.14 372.288C1138.83 363.695 1134.41 356.039 1116.33 317.97C1098.53 279.912 1100.7 173.384 1100.7 173.384C1100.7 173.384 1098.53 215.275 1096.21 255.305C1093.96 295.236 1118.72 373.323 1118.72 373.323C1118.72 373.323 1109.72 352.328 1091.67 354.178C1118.72 373.323 1107.4 413.254 1100.7 432.4C1093.96 451.435 1034.62 427.987 1011.08 415.227C1024.52 437.973 1066.6 449.462 1068.31 465.119C1069.95 480.912 1075.07 492.389 1086.72 496.692C1079.98 486.595 1088.43 468.029 1095.12 469.422C1088.43 485.079 1099.07 539.397 1099.62 549.025C1100.24 558.543 1098.53 568.06 1090.14 564.226C1069.4 555.177 1036.33 523.839 1004.46 500.982C1017.91 520.017 1073.3 562.488 1091.67 573.743C1110.27 585.233 1103.09 633.276 1101.8 642.905C1100.7 652.311 1110.27 675.168 1083.46 667.389C1056.57 659.856 1021.24 608.558 991.023 571.315C1017.91 578.971 1049.21 614.242 1057.2 621.897C1047.1 598.116 1006.1 570.957 982.56 549.37C959.111 528.141 910.401 515.135 893.546 489.492C910.401 516.651 952.357 536.722 954.125 546.708C912.111 525.121 865.59 531.384 865.59 531.384C865.59 531.384 910.401 530.927 928.821 542.294C947.314 553.673 1006.1 620.973 1022.95 632.229C1039.73 643.718 1064.56 672.616 1062.99 689.789C997.444 688.285 973.357 658.106 956.589 634.546C965.719 643.028 977.531 648.822 991.023 647.318C970.835 646.616 961.56 628.752 954.908 613.786C938.096 578.613 869.271 584.42 842.402 590.806C815.46 597.414 787.823 600.2 770.156 600.902C809.721 606.586 831.344 598.116 859.518 596.957C887.416 596.255 913.821 610.42 922.749 628.049C915.444 620.393 900.314 606.586 877.938 603.8C892.459 607.634 912.589 623.759 928.343 641.98C943.966 659.967 951.806 674.243 976.502 685.733C942.111 676.684 934.893 689.444 932.705 696.175C924.589 738.535 972.821 780.192 972.951 786.455C978.342 785.53 959.995 716.369 966.502 716.369C977.531 716.369 1033.39 767.075 1053.57 784.137C1051.66 778.109 996.212 693.623 996.212 693.623C996.212 693.623 1055.01 747.584 1081.82 769.392C1076.23 769.392 1041.43 703.831 1041.43 703.831C1041.43 703.831 1057.4 702.783 1067.01 705.224C1101.59 714.051 1084.54 754.549 1100.7 778.454C1116.8 764.757 1094.7 698.604 1132.98 699.541C1145.73 699.886 1163.8 709.169 1163.8 709.169C1163.8 709.169 1137.01 768.234 1123.49 769.392C1134.69 774.04 1217.28 710.451 1229.43 710.451C1229.02 713.237 1154.6 789.598 1154.53 792.15C1160.05 791.448 1240.06 716.837 1245.73 716.714C1245.99 714.162 1246.19 712.189 1246.27 710.451C1246.95 712.3 1247.64 714.396 1247.9 716.714C1257.38 716.837 1226.41 781.708 1232.35 785.419C1233.11 781.93 1280.72 735.169 1268.72 694.203C1261.96 685.733 1254.69 686.547 1279.9 662.408C1305.06 638.035 1368.99 613.786 1407.58 615.166C1345.31 604.613 1347.9 609.606 1308.48 622.366Z" fill="#6D6F71" fill-opacity="0.51"/>
<path fill-rule="evenodd" clip-rule="evenodd" d="M1761.33 331.432C1761.33 331.432 1826.27 333.17 1875.59 306.713C1853.07 310.424 1810.65 323.776 1765.29 302.3C1834.05 305.32 1805.53 285.25 1805.53 285.25C1805.53 285.25 1842.5 288.727 1853.42 296.617C1851.78 288.036 1824.84 281.539 1824.84 281.539C1824.84 281.539 1900.29 262.739 1918.08 253.221C1944.89 258.904 1949.46 285.706 1949.46 285.706L1945.98 264.711C1945.98 264.711 1994.27 276.201 1942.85 310.424C1985.27 304.741 1976.27 327.61 1920.26 329.459C1956.14 335.266 1973.5 325.169 1993.73 355.225C2013.78 385.158 2057.57 385.158 2057.57 385.158C2057.57 385.158 2035.68 392.247 2003.69 388.068C2034.04 398.041 2034.04 413.834 2062.54 413.834C2039.02 419.394 2000.34 416.607 1919.79 382.261C1839.03 348.025 1808.88 359.515 1808.88 359.515C1808.88 359.515 1820.68 345.252 1877.76 353.832C1849.18 343.846 1788.75 342.231 1755.2 352.328C1775.32 336.535 1796.26 339.556 1796.26 339.556C1796.26 339.556 1774.23 338.397 1761.33 331.432" fill="#6D6F71" fill-opacity="0.8"/>
<path fill-rule="evenodd" clip-rule="evenodd" d="M386.198 376.346C386.198 376.346 354.271 399.215 377.749 412.085C360.967 410.692 363.822 399.215 363.822 399.215C363.822 399.215 334.228 484.97 371.126 527.909C408.097 570.725 490.357 602.064 513.82 599.277C485.313 603.568 447.792 587.319 427.676 575.829C443.357 593.002 464.647 609.251 494.864 612.037C476.922 619.693 447.792 621.666 439.951 618.657C442.125 625.389 485.864 660.549 566.486 683.529C485.864 666.232 475.154 665.653 465.053 664.839C455.096 664.26 429.923 660.549 411.445 676.329C392.952 691.998 372.764 706.385 317.373 703.488C355.981 700.702 379.445 693.971 404.213 670.177C428.763 646.273 456.734 654.865 461.169 654.865C446.575 646.273 416.415 645.459 399.706 658.687C382.793 672.039 355.981 665.418 355.981 665.418C355.981 665.418 379.445 661.708 389.619 641.625C363.822 635.017 320.112 637.803 316.837 638.728C323.518 629.334 333.547 621.666 333.547 621.666C333.547 621.666 302.228 613.554 260.214 636.299C218.273 659.267 284.301 683.529 288.794 710.219C268.736 710.219 257.49 706.385 230.548 729.254C203.737 752.222 201.418 799.809 129.868 799.809C190.157 767.311 190.157 731.103 203.737 710.219C217.171 689.212 239.548 691.184 239.548 691.184C239.548 691.184 170.114 679.584 105.245 689.212C40.2314 698.84 37.9851 649.17 37.9851 649.17C69.3615 656.838 152.23 653.115 201.418 635.831C161.245 639.652 105.245 647.321 82.8686 639.652C136.491 635.831 176.868 622.368 219.49 616.907C261.925 611.113 273.113 590.105 270.953 571.194C235.041 569.221 225.012 570.725 206.461 572.118C211.577 562.022 263.562 550.655 305.576 552.036C280.475 534.875 239.548 531.152 196.983 536.847C226.113 523.607 260.214 524.889 260.214 524.889C260.214 524.889 196.375 512.129 186.273 465.011C162.955 466.404 62.1297 479.163 0 432.168C97.4626 444.817 161.245 444.817 194.737 429.259C156.129 433.561 85.5932 439.121 53.7385 420.678C107.419 432.168 176.317 427.878 214.998 410.692C253.606 393.408 330.822 354.993 386.198 376.346Z" fill="#6D6F71" fill-opacity="0.8"/>
<path fill-rule="evenodd" clip-rule="evenodd" d="M418.728 331.2C418.728 331.2 353.714 332.938 304.541 306.248C326.917 310.193 369.337 323.544 414.771 301.957C345.946 304.744 374.525 284.895 374.525 284.895C374.525 284.895 337.482 288.384 326.439 296.274C328.352 287.681 355.149 281.308 355.149 281.308C355.149 281.308 279.845 262.384 261.918 253.101C235.034 258.784 230.527 285.475 230.527 285.475L234.005 264.356C234.005 264.356 185.788 275.846 237.208 310.193C194.716 304.509 203.716 327.255 259.657 329.228C223.846 334.911 206.455 325.048 186.267 354.994C166.165 384.927 122.485 384.927 122.485 384.927C122.485 384.927 144.31 392.126 176.31 387.713C145.948 397.81 145.948 413.368 117.514 413.368C140.977 419.162 179.716 416.499 260.208 382.153C340.902 347.683 371.119 359.284 371.119 359.284C371.119 359.284 359.308 344.897 302.222 353.477C330.801 343.38 391.235 342.111 424.8 352.096C404.742 336.427 383.67 339.103 383.67 339.103C383.67 339.103 405.829 337.931 418.728 331.2" fill="#6D6F71" fill-opacity="0.8"/>
<path fill-rule="evenodd" clip-rule="evenodd" d="M855.077 523.842C855.077 523.842 810.599 518.738 788.237 495.869C765.759 473.247 638.514 356.733 600.587 353.947C616.543 351.284 641.717 347.45 659.514 348.843C622.34 338.401 576.92 321.573 519.139 336.428C461.429 351.284 433.27 341.421 414.502 326.566C428.285 344.898 456.038 348.608 456.038 348.608C456.038 348.608 423.241 348.263 410.343 367.409C431.618 365.326 458.849 365.326 475.487 373.327C470.907 373.906 464.023 374.954 461.98 377.974C473.226 379.367 487.835 389.575 490.965 401.99C483.429 398.747 472.212 398.858 464.907 405.133C473.096 401.879 494.458 403.161 504.747 424.624C515.124 446.211 558.428 520.945 612.108 524.187C665.659 527.319 675.514 509.11 686.47 509.8C697.31 510.848 702.832 514.67 709.383 524.532C715.933 534.407 717.774 558.077 736.803 560.395C735.991 569.567 740.208 594.162 720.426 605.775C760.672 591.376 744.107 586.395 764.295 586.05C784.628 585.582 778.411 558.312 773.367 553.208C805.758 554.601 879.018 552.505 915.989 586.741C903.235 565.388 847.845 546.353 822.541 547.981C836.599 542.766 866.192 534.641 855.077 523.842Z" fill="#6D6F71" fill-opacity="0.8"/>
<path fill-rule="evenodd" clip-rule="evenodd" d="M1332.82 528.137C1332.82 528.137 1377.15 522.219 1399.12 499.128C1420.87 476.149 1545.97 357.662 1583.83 354.42C1567.74 351.979 1542.49 348.379 1524.76 349.883C1561.6 339.096 1606.78 321.565 1664.8 335.496C1722.71 349.538 1750.87 339.33 1769.23 324.24C1755.65 342.695 1728.1 346.986 1728.1 346.986C1728.1 346.986 1760.97 346.172 1774.27 365.096C1752.85 363.345 1725.64 363.69 1709.33 371.815C1713.9 372.394 1720.67 373.097 1722.71 376.339C1711.65 377.856 1697.13 388.408 1694.19 400.946C1701.64 397.47 1713.01 397.236 1720.46 403.264C1712.28 400.367 1690.99 401.994 1681.17 423.581C1671.13 445.39 1641.33 515.254 1587.91 519.322C1534.38 523.378 1511.93 510.618 1501.02 511.654C1490.18 512.468 1484.79 516.647 1478.38 526.633C1472.03 536.495 1470.8 560.4 1451.64 562.607C1452.8 571.89 1449.05 596.608 1469.1 607.74C1428.51 594.167 1445.09 588.94 1424.83 588.829C1404.57 588.718 1410.16 561.324 1415.15 556.11C1382.71 558.082 1309.35 556.8 1273.14 591.849C1285.34 570.262 1340.32 550.414 1365.96 551.573C1351.71 546.469 1321.83 539.282 1332.82 528.137Z" fill="#6D6F71" fill-opacity="0.8"/>
<path fill-rule="evenodd" clip-rule="evenodd" d="M466.077 358.011L502.367 375.184C493.019 389.115 518.874 398.275 521.192 408.384C526.584 431.24 548.279 467.794 563.004 484.967C577.873 502.029 600.583 515.948 624.669 514.678C649.017 513.519 671.872 506.677 685.162 498.664C690.017 495.877 718.799 503.188 730.828 537.534C756.856 542.873 775.407 514.789 778.001 511.312C781.958 505.629 701.205 431.24 691.93 425.545C682.509 419.75 650.321 395.846 640.843 387.833C631.423 379.832 608.539 363.817 584.496 355.804C576.916 353.252 592.134 345.596 585.713 344.314C571.54 341.417 538.047 346.755 530.671 346.755C519.888 346.755 466.077 358.011 466.077 358.011Z" fill="black" fill-opacity="0.8"/>
<path d="M466.077 358.011L502.367 375.184C493.019 389.115 518.874 398.275 521.192 408.384C526.584 431.24 548.279 467.794 563.004 484.967C577.873 502.029 600.583 515.948 624.669 514.678C649.017 513.519 671.872 506.677 685.162 498.664C690.017 495.877 718.799 503.188 730.828 537.534C756.856 542.873 775.407 514.789 778.001 511.312C781.958 505.629 701.205 431.24 691.93 425.545C682.509 419.75 650.321 395.846 640.843 387.833C631.423 379.832 608.539 363.817 584.496 355.804C576.916 353.252 592.134 345.596 585.713 344.314C571.54 341.417 538.047 346.755 530.671 346.755C519.888 346.755 466.077 358.011 466.077 358.011Z" stroke="black" stroke-opacity="0.8" stroke-width="0.185" stroke-miterlimit="3.864" stroke-linecap="round" stroke-linejoin="bevel"/>
<path fill-rule="evenodd" clip-rule="evenodd" d="M1693.4 363.812C1681.19 369.495 1682.61 390.034 1674.57 406.048C1666.58 422.186 1654.38 450.738 1648.99 463.264C1643.67 475.789 1616.79 497.499 1605.95 503.182C1595.31 508.989 1560.31 511.307 1542.76 510.148C1525.3 508.989 1507.79 507.83 1498.51 505.623C1489.04 503.182 1479.56 499.817 1475.67 511.307C1471.5 522.686 1470.21 543.225 1459.43 543.225C1448.73 543.225 1425.88 538.577 1411.14 538.577C1396.34 538.577 1385.56 531.957 1394.97 522.686C1404.24 513.514 1447.3 476.96 1454.18 468.947C1458.07 464.077 1476.82 445.388 1498.51 429.028C1512.63 418.118 1536.51 403.151 1542.76 394.793C1566.93 362.53 1611.34 357.191 1619.46 357.191C1627.44 357.191 1593.88 346.749 1593.88 346.749C1593.88 346.749 1618.09 343.15 1646.27 347.908C1674.57 352.445 1701.44 353.604 1712.29 356.957C1722.86 360.335 1705.54 358.005 1693.4 363.812Z" fill="black" fill-opacity="0.8"/>
<path fill-rule="evenodd" clip-rule="evenodd" d="M561.37 368.807C561.37 368.807 590.834 377.855 609.456 383.896C628.137 389.814 636.268 403.732 646.152 410.932C655.978 418.243 670.514 424.037 688.861 444.465C706.861 464.782 710.267 460.948 710.267 460.948C710.267 460.948 675.209 514.674 612.109 489.845C548.95 464.782 585.268 401.181 591.239 392.353C614.022 398.394 624.601 411.277 624.601 411.277C624.601 411.277 600.587 447.251 626.717 460.837C662.05 478.935 680.05 446.795 680.05 446.795C680.05 446.795 654.673 419.858 635.036 414.064C639.949 413.25 629.992 403.042 617.268 394.684C604.746 386.325 565.732 375.414 561.37 368.807Z" fill="#FFF200"/>
<path fill-rule="evenodd" clip-rule="evenodd" d="M1633.98 366.598C1633.98 366.598 1604.92 375.425 1586.57 381.343C1568.3 387.26 1560.31 400.834 1550.69 408.033C1540.88 415.221 1526.69 420.916 1508.68 440.863C1490.88 460.835 1487.66 457.124 1487.66 457.124C1487.66 457.124 1522.18 510.037 1583.91 485.553C1646.05 460.946 1610.31 398.393 1604.37 389.812C1582.14 395.73 1571.85 408.255 1571.85 408.255C1571.85 408.255 1595.37 443.773 1569.79 456.89C1535.01 474.877 1517.2 443.317 1517.2 443.317C1517.2 443.317 1542.17 416.848 1561.47 411.041C1556.63 410.351 1566.52 400.02 1578.86 392.019C1591.29 383.895 1629.75 372.984 1633.98 366.598Z" fill="#FFF200"/>
</svg>
